<svg width="26" height="26" viewBox="0 0 26 26" fill="none" xmlns="http://www.w3.org/2000/svg">
<path d="M20.9802 2.00235H20.0104V1.02103C20.0104 0.460352 19.5559 0.00585938 18.9953 0.00585938C18.4346 0.00585938 17.9801 0.460352 17.9801 1.02103V2.00235H8.01987V1.02103C8.01987 0.460352 7.56537 0.00585938 7.00469 0.00585938C6.44401 0.00585938 5.98952 0.460352 5.98952 1.02103V2.00235H5.01978C2.25186 2.00235 0 4.2542 0 7.02207V20.9745C0 23.7424 2.25186 25.9943 5.01978 25.9943H20.9803C23.7481 25.9943 26 23.7424 26 20.9745V7.02207C26 4.2542 23.7481 2.00235 20.9802 2.00235ZM5.01978 4.03269H5.98952V6.01228C5.98952 6.57296 6.44401 7.02745 7.00469 7.02745C7.56537 7.02745 8.01987 6.57296 8.01987 6.01228V4.03269H17.9801V6.01228C17.9801 6.57296 18.4346 7.02745 18.9953 7.02745C19.556 7.02745 20.0105 6.57296 20.0105 6.01228V4.03269H20.9803C22.6286 4.03269 23.9697 5.37374 23.9697 7.02207V7.99187H2.03035V7.02207C2.03035 5.37374 3.37139 4.03269 5.01978 4.03269ZM20.9802 23.9639H5.01978C3.37139 23.9639 2.03035 22.6229 2.03035 20.9745V10.0222H23.9697V20.9745C23.9697 22.6229 22.6286 23.9639 20.9802 23.9639ZM9.01814 14.0152C9.01814 14.5759 8.56364 15.0304 8.00296 15.0304H6.00647C5.44579 15.0304 4.9913 14.5759 4.9913 14.0152C4.9913 13.4546 5.44579 13.0001 6.00647 13.0001H8.00296C8.56359 13.0001 9.01814 13.4546 9.01814 14.0152ZM21.0087 14.0152C21.0087 14.5759 20.5543 15.0304 19.9936 15.0304H17.9971C17.4364 15.0304 16.9819 14.5759 16.9819 14.0152C16.9819 13.4546 17.4364 13.0001 17.9971 13.0001H19.9936C20.5542 13.0001 21.0087 13.4546 21.0087 14.0152ZM15.0077 14.0152C15.0077 14.5759 14.5532 15.0304 13.9925 15.0304H11.996C11.4353 15.0304 10.9808 14.5759 10.9808 14.0152C10.9808 13.4546 11.4353 13.0001 11.996 13.0001H13.9925C14.5531 13.0001 15.0077 13.4546 15.0077 14.0152ZM9.01814 20.0048C9.01814 20.5654 8.56364 21.0199 8.00296 21.0199H6.00647C5.44579 21.0199 4.9913 20.5654 4.9913 20.0048C4.9913 19.4441 5.44579 18.9896 6.00647 18.9896H8.00296C8.56359 18.9896 9.01814 19.4441 9.01814 20.0048ZM21.0087 20.0048C21.0087 20.5654 20.5543 21.0199 19.9936 21.0199H17.9971C17.4364 21.0199 16.9819 20.5654 16.9819 20.0048C16.9819 19.4441 17.4364 18.9896 17.9971 18.9896H19.9936C20.5542 18.9896 21.0087 19.4441 21.0087 20.0048ZM15.0077 20.0048C15.0077 20.5654 14.5532 21.0199 13.9925 21.0199H11.996C11.4353 21.0199 10.9808 20.5654 10.9808 20.0048C10.9808 19.4441 11.4353 18.9896 11.996 18.9896H13.9925C14.5531 18.9896 15.0077 19.4441 15.0077 20.0048Z" fill="#626262"/>
</svg>
