<svg width="33" height="33" viewBox="0 0 33 33" fill="none" xmlns="http://www.w3.org/2000/svg">
<circle cx="16.5" cy="16.5" r="16.5" fill="white"/>
<path d="M13.6805 9.26721C13.2757 8.8914 12.643 8.91484 12.2672 9.31955C11.8914 9.72426 11.9148 10.357 12.3195 10.7328L13.6805 9.26721ZM20 16.5L20.6805 17.2328L21.4696 16.5L20.6805 15.7672L20 16.5ZM12.3195 22.2672C11.9148 22.643 11.8914 23.2757 12.2672 23.6805C12.643 24.0852 13.2757 24.1086 13.6805 23.7328L12.3195 22.2672ZM12.3195 10.7328L19.3195 17.2328L20.6805 15.7672L13.6805 9.26721L12.3195 10.7328ZM19.3195 15.7672L12.3195 22.2672L13.6805 23.7328L20.6805 17.2328L19.3195 15.7672Z" fill="#005BBB"/>
</svg>
