<svg width="23" height="23" viewBox="0 0 23 23" fill="none" xmlns="http://www.w3.org/2000/svg">
<circle cx="11.5" cy="11.5" r="11" stroke="#787878"/>
<path d="M12.24 7.89C11.9693 7.89 11.7547 7.81533 11.596 7.666C11.4467 7.51667 11.372 7.31133 11.372 7.05C11.372 6.76067 11.4653 6.51333 11.652 6.308C11.8387 6.10267 12.0907 6 12.408 6C12.6787 6 12.8887 6.07467 13.038 6.224C13.1967 6.37333 13.276 6.57867 13.276 6.84C13.276 7.12933 13.1827 7.37667 12.996 7.582C12.8187 7.78733 12.5667 7.89 12.24 7.89ZM10 9.514L10.07 9.122H12.758L11.89 14.12C11.778 14.7733 11.722 15.2073 11.722 15.422C11.7313 15.6273 11.806 15.73 11.946 15.73C12.0767 15.73 12.2167 15.6553 12.366 15.506C12.5153 15.3567 12.6507 15.1047 12.772 14.75L13.318 15.058C13.1127 15.4873 12.8653 15.8 12.576 15.996C12.2867 16.192 11.9553 16.29 11.582 16.29C11.0687 16.29 10.6907 16.1127 10.448 15.758C10.2053 15.394 10.14 14.8853 10.252 14.232L10.938 10.298C10.994 9.98067 11.0127 9.794 10.994 9.738C10.9753 9.67267 10.896 9.63067 10.756 9.612L10 9.514Z" fill="#2C2C2C"/>
</svg>
