<svg width="58" height="58" viewBox="0 0 58 58" fill="none" xmlns="http://www.w3.org/2000/svg">
<path d="M29 58C23.8634 58 7.25 34.11 7.25 21.8686C7.25 9.81033 17.0072 0 29 0C40.9928 0 50.75 9.81033 50.75 21.8686C50.75 34.11 34.1366 58 29 58ZM29 3.625C19.0056 3.625 10.875 11.8087 10.875 21.8686C10.875 32.9029 25.5086 52.6209 29 54.3184C32.4914 52.6209 47.125 32.9029 47.125 21.8686C47.125 11.8087 38.9944 3.625 29 3.625ZM29 31.0798C24.0032 31.0798 19.9375 27.014 19.9375 22.0173C19.9375 17.0205 24.0032 12.9548 29 12.9548C33.9968 12.9548 38.0625 17.0205 38.0625 22.0173C38.0625 27.014 33.9968 31.0798 29 31.0798ZM29 16.5798C26.0016 16.5798 23.5625 19.0189 23.5625 22.0173C23.5625 25.0157 26.0016 27.4548 29 27.4548C31.9984 27.4548 34.4375 25.0157 34.4375 22.0173C34.4375 19.0189 31.9984 16.5798 29 16.5798Z" fill="#2C2C2C"/>
</svg>
