<svg width="28" height="28" viewBox="0 0 28 28" fill="none" xmlns="http://www.w3.org/2000/svg">
<path d="M27.7343 26.4767L20.5052 19.3631C22.3983 17.3063 23.5614 14.5862 23.5614 11.593C23.5605 5.18993 18.2865 0 11.7803 0C5.27398 0 0 5.18993 0 11.593C0 17.996 5.27398 23.1859 11.7803 23.1859C14.5914 23.1859 17.1698 22.2136 19.195 20.597L26.4522 27.7387C26.8058 28.0871 27.3799 28.0871 27.7335 27.7387C28.0879 27.3904 28.0879 26.825 27.7343 26.4767ZM11.7803 21.4023C6.27524 21.4023 1.81256 17.0105 1.81256 11.593C1.81256 6.17541 6.27524 1.78364 11.7803 1.78364C17.2853 1.78364 21.748 6.17541 21.748 11.593C21.748 17.0105 17.2853 21.4023 11.7803 21.4023Z" fill="#7D7D7D"/>
</svg>
