<svg width="21" height="21" viewBox="0 0 21 21" fill="none" xmlns="http://www.w3.org/2000/svg">
<path d="M17.5134 9.94533V8.10525C17.5134 7.93503 17.3754 7.79702 17.2052 7.79702H17.0339V6.36783C17.0339 5.75563 16.5358 5.25762 15.9237 5.25762H15.7091V4.6592C15.7091 4.047 15.2111 3.54895 14.5989 3.54895H11.2471C10.6349 3.54895 10.1368 4.047 10.1368 4.6592V5.25762H9.13078C8.51283 5.25762 7.93656 5.55539 7.57772 6.0557H3.38276C3.29946 5.75666 3.02535 5.53628 2.7001 5.53628H0.709242C0.318158 5.53628 0 5.85444 0 6.24552V7.83167C0 8.22276 0.318158 8.54092 0.709242 8.54092H2.7001C3.02535 8.54092 3.29946 8.32058 3.38276 8.02149H6.24393L4.94714 9.93545H3.75773C1.6857 9.93545 0 11.6212 0 13.6932C0 15.7652 1.6857 17.4509 3.75773 17.4509H6.20858C6.37879 17.4509 6.51681 17.3129 6.51681 17.1427C6.51681 16.9725 6.37879 16.8345 6.20858 16.8345H3.75773C2.0256 16.8345 0.616424 15.4253 0.616424 13.6932C0.616424 11.961 2.0256 10.5519 3.75773 10.5519H13.6792C13.8495 10.5519 13.9875 10.4139 13.9875 10.2436C13.9875 10.0734 13.8495 9.9354 13.6792 9.9354H9.92389L10.9514 8.4134H16.8969V9.9354H14.9121C14.7419 9.9354 14.6039 10.0734 14.6039 10.2436C14.6039 10.4139 14.7419 10.5519 14.9121 10.5519H17.2422C18.9744 10.5519 20.3835 11.961 20.3835 13.6932C20.3835 15.4253 18.9744 16.8345 17.2422 16.8345H7.44146C7.27125 16.8345 7.13323 16.9724 7.13323 17.1427C7.13323 17.313 7.27121 17.4509 7.44146 17.4509H17.2422C19.3143 17.4509 21 15.7652 21 13.6932C21 11.7124 19.4593 10.0847 17.5134 9.94533ZM2.79288 7.83167C2.79288 7.88286 2.75125 7.92445 2.7001 7.92445H0.709242C0.658055 7.92445 0.616465 7.88282 0.616465 7.83167V6.24552C0.616465 6.19433 0.658096 6.15274 0.709242 6.15274H2.7001C2.75129 6.15274 2.79288 6.19437 2.79288 6.24552V7.83167ZM3.4093 7.40507V6.67216H7.15813L6.66155 7.40507H3.4093ZM10.7876 7.79702C10.6852 7.79702 10.5895 7.84788 10.5322 7.93278L9.1802 9.93545H5.69174L8.05805 6.44297C8.29943 6.08671 8.70048 5.87404 9.13082 5.87404H11.9081C12.0783 5.87404 12.2163 5.73607 12.2163 5.56581C12.2163 5.39559 12.0783 5.25758 11.9081 5.25758H10.7533V4.65916C10.7533 4.38686 10.9748 4.16537 11.2471 4.16537H14.5989C14.8712 4.16537 15.0927 4.3869 15.0927 4.65916V5.25758H13.1409C12.9707 5.25758 12.8327 5.39559 12.8327 5.56581C12.8327 5.73602 12.9707 5.87404 13.1409 5.87404H15.9237C16.1959 5.87404 16.4174 6.09557 16.4174 6.36783V7.79702H10.7876Z" fill="#2C2C2C"/>
<path d="M17.2215 16.0802C18.5305 16.0713 19.5928 15.004 19.5928 13.693C19.5928 12.3765 18.5217 11.3054 17.2052 11.3054C17.2051 11.3054 17.2051 11.3054 17.2051 11.3054C17.2051 11.3054 17.205 11.3054 17.205 11.3054H3.79503C3.79499 11.3054 3.79499 11.3054 3.79495 11.3054C3.79491 11.3054 3.79487 11.3054 3.79483 11.3054C2.47831 11.3054 1.40723 12.3765 1.40723 13.693C1.40723 15.004 2.46945 16.0713 3.77846 16.0802C3.784 16.0805 3.78946 16.081 3.79507 16.081H17.205C17.2105 16.0811 17.216 16.0805 17.2215 16.0802ZM18.9763 13.693C18.9763 14.6696 18.1818 15.4642 17.2051 15.4642C16.2285 15.4642 15.434 14.6696 15.434 13.693C15.434 12.7164 16.2286 11.9219 17.2051 11.9219C18.1818 11.9219 18.9763 12.7164 18.9763 13.693ZM15.6059 11.9219C15.1221 12.3591 14.8175 12.9911 14.8175 13.693C14.8175 14.3952 15.1223 15.0273 15.6063 15.4646H12.0439C12.5279 15.0273 12.8327 14.3952 12.8327 13.693C12.8327 12.9911 12.5281 12.3591 12.0443 11.9219H15.6059ZM10.4451 11.9219C11.4217 11.9219 12.2162 12.7164 12.2162 13.693C12.2162 14.6696 11.4217 15.4642 10.4451 15.4642C9.46844 15.4642 8.67393 14.6696 8.67393 13.693C8.67393 12.7164 9.46844 11.9219 10.4451 11.9219ZM8.84578 11.9219C8.362 12.3591 8.05746 12.9911 8.05746 13.693C8.05746 14.3952 8.36221 15.0273 8.84627 15.4646H5.39362C5.87768 15.0273 6.18243 14.3952 6.18243 13.693C6.18243 12.9911 5.87789 12.3591 5.39411 11.9219H8.84578ZM2.02365 13.693C2.02365 12.7164 2.81821 11.9219 3.79483 11.9219C4.77145 11.9219 5.56597 12.7164 5.56597 13.693C5.56597 14.6696 4.77141 15.4642 3.79483 15.4642C2.81821 15.4642 2.02365 14.6696 2.02365 13.693Z" fill="#2C2C2C"/>
</svg>
