<svg width="21" height="21" viewBox="0 0 21 21" fill="none" xmlns="http://www.w3.org/2000/svg">
<g clip-path="url(#clip0_87_1224)">
<path d="M9.64932 7.03604C9.74423 7.03604 9.83914 7.01107 9.92565 6.96111L12.3282 5.57396C12.5012 5.47405 12.6045 5.29518 12.6045 5.09535C12.6045 4.89552 12.5012 4.71665 12.3282 4.61674L9.92565 3.22963C9.75264 3.12967 9.54605 3.12967 9.373 3.22963C9.2 3.3295 9.09668 3.50841 9.09668 3.7082V6.48246C9.09668 6.68224 9.2 6.86119 9.373 6.96107C9.45954 7.01111 9.55441 7.03604 9.64932 7.03604ZM9.71072 3.81464L11.9291 5.09539L9.71072 6.37618V3.81464Z" fill="#2C2C2C"/>
<path d="M12.722 9.19928C12.9395 9.19928 13.1158 9.02296 13.1158 8.80545C13.1158 8.58795 12.9395 8.41162 12.722 8.41162C12.5044 8.41162 12.3281 8.58795 12.3281 8.80545C12.3281 9.02296 12.5044 9.19928 12.722 9.19928Z" fill="#2C2C2C"/>
<path d="M14.4093 9.63347C14.6239 9.59867 14.7698 9.39643 14.735 9.18175C14.7002 8.96707 14.4979 8.82125 14.2832 8.85605C14.0686 8.89086 13.9227 9.0931 13.9575 9.30778C13.9923 9.52245 14.1946 9.66827 14.4093 9.63347Z" fill="#2C2C2C"/>
<path d="M19.8739 1.07104H3.48083C3.31127 1.07104 3.17383 1.20849 3.17383 1.37805C3.17383 1.54761 3.31127 1.68505 3.48083 1.68505H19.8739C20.1561 1.68505 20.3857 1.91457 20.3857 2.19676V6.90786C20.3857 7.07746 20.5231 7.21486 20.6927 7.21486C20.8622 7.21486 20.9997 7.07742 20.9997 6.90786V2.19676C20.9997 1.57607 20.4947 1.07104 19.8739 1.07104Z" fill="#2C2C2C"/>
<path d="M20.693 8.20866C20.5234 8.20866 20.386 8.34611 20.386 8.51566V11.8598H19.3723L19.4811 10.9577C19.5045 10.7644 19.4556 10.5704 19.3468 10.4115C19.4762 10.163 19.5304 9.88025 19.5001 9.59589C19.4294 8.93173 18.8954 8.39938 18.2304 8.33007C18.1851 8.32535 18.1397 8.32277 18.0944 8.32228C18.0999 8.27101 18.1028 8.21924 18.1028 8.16736C18.1028 7.42924 17.5403 6.82 16.8202 6.74564C16.6604 6.04976 16.0128 5.57661 15.2825 5.64945C14.6432 5.71327 14.1235 6.20066 14.0185 6.83476C14.0099 6.88681 14.0042 6.93911 14.0012 6.99144C13.9726 6.98972 13.9439 6.9889 13.9152 6.9889C13.5573 6.9889 13.2169 7.12179 12.9555 7.35886C12.6942 7.12179 12.3538 6.9889 11.9959 6.9889C11.2356 6.9889 10.6121 7.58555 10.5689 8.33524C10.3952 8.37334 10.2297 8.44376 10.0816 8.54212H6.34175C6.20632 8.04144 5.74834 7.67193 5.20542 7.67193C4.66249 7.67193 4.20447 8.04144 4.06908 8.54212H3.19811C3.02855 8.54212 2.89111 8.67956 2.89111 8.84912C2.89111 9.01868 3.02855 9.15612 3.19811 9.15612H4.069C4.20443 9.6568 4.66245 10.0263 5.20533 10.0263C5.74822 10.0263 6.20624 9.6568 6.34167 9.15612H9.56431C9.47334 9.36259 9.43228 9.58953 9.44701 9.82332C9.45976 10.0256 9.51673 10.2224 9.61226 10.4012C9.4986 10.5619 9.44754 10.7603 9.47137 10.9577L9.58022 11.8598H0.614045V2.19676C0.614045 1.91461 0.843568 1.68505 1.12576 1.68505H1.9432C2.11276 1.68505 2.2502 1.54761 2.2502 1.37805C2.2502 1.20849 2.11276 1.07104 1.9432 1.07104H1.12576C0.504984 1.07104 0 1.57607 0 2.19676V14.0862C0 14.7069 0.504984 15.2119 1.12571 15.2119H7.85539V17.6113H6.92856C6.75901 17.6113 6.62156 17.7488 6.62156 17.9183C6.62156 18.0879 6.75901 18.2253 6.92856 18.2253H10.3485L10.4693 19.2262C10.5176 19.6267 10.8583 19.9288 11.2618 19.9288H17.6908C18.0942 19.9288 18.4349 19.6268 18.4833 19.2262L18.9678 15.2119H19.8743C20.4951 15.2119 21 14.7068 21 14.0862V8.5157C21 8.3461 20.8626 8.20866 20.693 8.20866ZM10.8726 8.91618C11.0631 8.93193 11.2301 8.74539 11.1926 8.55746C11.1027 8.06605 11.4962 7.59827 11.9958 7.60294C12.2377 7.60294 12.4656 7.70942 12.6211 7.89497C12.7847 8.1005 13.1262 8.10046 13.2898 7.89506C13.4811 7.66344 13.7965 7.55643 14.0891 7.62148C14.3693 7.69006 14.6526 7.43736 14.6168 7.1512C14.5663 6.71742 14.9093 6.29975 15.3434 6.2605C15.7897 6.21567 16.1827 6.52792 16.2371 6.97065C16.2638 7.18819 16.4507 7.35209 16.6729 7.35209H16.6734C17.123 7.35209 17.4887 7.71783 17.4887 8.1674C17.4887 8.24488 17.4779 8.32145 17.4565 8.39504C17.3603 8.69006 17.6393 9.0081 17.9443 8.94739C18.3951 8.86503 18.8468 9.20427 18.8895 9.66094C18.9048 9.80495 18.882 9.94764 18.8259 10.0768C18.7808 10.0688 18.7351 10.0638 18.6886 10.0638H10.2639C10.2204 10.0638 10.1776 10.0684 10.1353 10.0754C10.0922 9.9839 10.0662 9.88546 10.0598 9.78481C10.0455 9.55639 10.1233 9.3393 10.279 9.17351C10.4348 9.00756 10.6459 8.91618 10.8726 8.91618ZM16.105 19.3148L16.2122 16.1656C16.2707 16.1301 16.3278 16.093 16.3826 16.0537C16.7178 15.8135 16.9597 15.5206 17.0965 15.1981L16.8205 19.3148H16.105ZM12.132 19.3148L11.8561 15.1982C11.9928 15.5206 12.2348 15.8135 12.5699 16.0537C12.6248 16.093 12.6819 16.1301 12.7403 16.1656L12.8475 19.3148H12.132ZM14.4763 16.0102C13.2984 16.0102 12.3402 15.3622 12.3402 14.5658C12.3402 13.7694 13.2984 13.1215 14.4763 13.1215C15.6541 13.1215 16.6124 13.7694 16.6124 14.5658C16.6124 15.3622 15.6541 16.0102 14.4763 16.0102ZM14.7833 12.5205V10.6778H15.7847L15.715 12.7256C15.4252 12.6169 15.1105 12.5473 14.7833 12.5205ZM14.1693 12.5205C13.842 12.5473 13.5273 12.6169 13.2375 12.7256L13.1678 10.6778H14.1693V12.5205H14.1693ZM12.5534 10.6778L12.6336 13.0343C12.6123 13.0487 12.5907 13.0629 12.5699 13.0779C12.1656 13.3677 11.8966 13.734 11.7849 14.1367L11.553 10.6778H12.5534ZM13.3643 16.4505C13.6183 16.5338 13.8892 16.5881 14.1692 16.6112V19.3148H13.4619L13.3643 16.4505ZM14.7833 16.6112C15.0633 16.5881 15.3342 16.5338 15.5882 16.4505L15.4907 19.3148H14.7833V16.6112ZM17.1677 14.1368C17.056 13.734 16.787 13.3677 16.3827 13.0779C16.3618 13.063 16.3403 13.0487 16.3189 13.0344L16.3991 10.6778H17.3995L17.1677 14.1368ZM5.20533 9.4123C4.8948 9.4123 4.64215 9.15965 4.64215 8.84912C4.64215 8.53859 4.8948 8.28593 5.20533 8.28593C5.51586 8.28593 5.76852 8.53859 5.76852 8.84912C5.76852 9.15965 5.51586 9.4123 5.20533 9.4123ZM0.614045 14.0862V12.4739H9.65438L9.91073 14.5979H1.12571C0.843568 14.5979 0.614045 14.3683 0.614045 14.0862ZM8.46944 17.6114V15.2119H9.9848L10.2744 17.6114H8.46944ZM11.0789 19.1527L10.081 10.8842C10.0724 10.8125 10.1056 10.763 10.1261 10.7398C10.1466 10.7167 10.1918 10.6778 10.2639 10.6778H10.9376L11.5166 19.3148H11.2618C11.1687 19.3148 11.09 19.2451 11.0789 19.1527ZM17.8737 19.1527C17.8625 19.2451 17.7839 19.3148 17.6908 19.3148H17.436L18.015 10.6778H18.6886C18.7608 10.6778 18.806 10.7166 18.8265 10.7398C18.847 10.763 18.8801 10.8125 18.8715 10.8842L17.8737 19.1527ZM19.8743 14.5979H19.0418L19.2982 12.4738H20.386V14.0862C20.386 14.3683 20.1564 14.5979 19.8743 14.5979Z" fill="#2C2C2C"/>
</g>
<defs>
<clipPath id="clip0_87_1224">
<rect width="21" height="21" fill="white"/>
</clipPath>
</defs>
</svg>
