<svg width="21" height="21" viewBox="0 0 21 21" fill="none" xmlns="http://www.w3.org/2000/svg">
<g clip-path="url(#clip0_87_1213)">
<path d="M20.0094 14.9445C19.6904 14.4502 19.0513 14.3205 18.5776 14.6413L18.3282 14.7724L17.0364 13.7423C15.7488 12.7155 14.1905 12.1565 12.6072 12.0811C12.6829 11.6695 12.8892 11.118 13.4177 10.5894C13.5738 10.6325 14.1493 10.6467 14.3291 10.6467C15.3828 10.6467 16.3156 10.4411 17.1101 10.0328C17.2612 9.95517 17.3208 9.76973 17.2431 9.61863C17.1654 9.46741 16.9799 9.40798 16.8289 9.48562C16.0563 9.88265 15.1256 10.0634 14.058 10.0261C15.9858 8.41601 18.1445 7.13895 19.1038 6.60087C18.9386 7.1618 18.5961 7.99212 17.9093 8.6909C17.7903 8.81206 17.792 9.00684 17.9131 9.12591C18.0342 9.24486 18.229 9.24334 18.3482 9.1221C19.375 8.07722 19.7183 6.78027 19.8182 6.27118C19.8825 5.94371 19.6024 5.65377 19.2617 5.65816C16.2459 5.71571 13.3987 7.00528 13.0207 10.0305C13.017 10.0602 13.0164 10.0899 13.0182 10.1193C12.8315 10.3013 12.6766 10.4864 12.5486 10.6703V8.11106C13.8805 6.89856 14.3008 5.29837 13.9718 3.50496C13.6953 1.9978 12.9486 0.705605 12.6403 0.220061C12.6403 0.22002 12.6403 0.22002 12.6403 0.22002C12.4593 -0.0653256 12.0336 -0.0815678 11.8423 0.22002C11.534 0.705604 10.7873 1.99776 10.5108 3.50496C10.1826 5.29386 10.5992 6.8956 11.9333 8.11053V10.6182C11.8127 10.4515 11.6698 10.2842 11.5007 10.1193C11.5025 10.0899 11.502 10.0602 11.4982 10.0305C11.1208 7.00987 8.2719 5.71562 5.25721 5.65812C4.91333 5.6548 4.63676 5.94548 4.70071 6.2711C5.18034 8.71543 7.02916 10.6473 10.1775 10.6473C10.3584 10.6473 10.9459 10.6322 11.1013 10.5893C11.6307 11.1184 11.8375 11.668 11.913 12.0791C10.6949 12.1299 9.48313 12.4674 8.38904 13.0992C8.26501 13.0551 8.15229 13.0178 8.05808 12.9896C7.13835 12.7141 6.11583 12.8338 5.25253 13.3179L3.04216 14.5573C2.76715 14.2774 2.33017 14.2063 1.97374 14.4122L1.25708 14.8259C0.836052 15.0691 0.691267 15.6094 0.934366 16.0305L3.54887 20.5588C3.79209 20.98 4.3305 21.1257 4.75341 20.8815L5.47004 20.4678C5.88434 20.2286 6.03031 19.7018 5.80329 19.2838L6.34277 18.8053C6.49937 18.6664 6.72036 18.6199 6.91949 18.684L9.40545 19.4831C9.71515 19.6031 10.0581 19.6527 10.4007 19.6177L15.3674 19.108C15.7267 19.0712 16.076 18.942 16.3776 18.7345C20.0291 16.2212 19.81 16.3771 19.8419 16.3472C20.2232 15.9904 20.2952 15.3873 20.0094 14.9445ZM18.3189 6.34124C17.2274 6.97661 15.4193 8.10274 13.7581 9.47561C14.4029 7.18534 16.7963 6.52577 18.3189 6.34124ZM10.762 9.47651C9.10267 8.10507 7.29667 6.97981 6.20446 6.34382C8.25582 6.59828 10.2012 7.47684 10.762 9.47651ZM5.41413 6.60037C6.37295 7.13813 8.53263 8.41564 10.4612 10.0265C6.92113 10.1501 5.77261 7.82949 5.41413 6.60037ZM13.3667 3.61603C13.6303 5.05335 13.3549 6.26429 12.5486 7.22623V1.30045C12.8531 1.89354 13.2014 2.71521 13.3667 3.61603ZM11.116 3.61603C11.2812 2.71578 11.6291 1.89465 11.9334 1.30173V7.22545C11.1276 6.26363 10.8524 5.05298 11.116 3.61603ZM16.6528 14.2234L17.7334 15.0851L16.3813 15.7958C15.9378 16.029 15.468 16.1758 14.9807 16.2339L14.988 16.114C14.9889 16.0981 14.9887 16.0823 14.9871 16.0665C14.9198 15.3534 14.3979 14.7846 13.7179 14.6832C13.7152 14.6828 13.7124 14.6824 13.7096 14.6821L11.2408 14.3825C10.4587 14.2646 10.3523 13.9219 9.1413 13.3966C11.572 12.2162 14.5169 12.5201 16.6528 14.2234ZM19.4359 15.8839L16.0289 18.2277C15.812 18.3769 15.5616 18.4696 15.3046 18.496L10.338 19.0057C9.99841 19.0405 9.78804 18.96 9.60261 18.9002L7.10771 18.0983C6.70243 17.9681 6.25286 18.0626 5.9345 18.3451L5.49018 18.7392L4.49477 17.0151C4.40982 16.8679 4.2216 16.8177 4.07456 16.9025C3.92744 16.9875 3.87703 17.1756 3.96198 17.3227C4.13264 17.6183 4.91276 18.9695 5.25996 19.5709C5.33341 19.6982 5.28965 19.8615 5.16238 19.935L4.44575 20.3487C4.31791 20.4225 4.1552 20.3786 4.08162 20.2512L1.46728 15.723C1.39382 15.5957 1.43755 15.4323 1.56486 15.3588L2.28148 14.9451C2.40962 14.8711 2.57224 14.9155 2.64562 15.0427L3.24141 16.0746C3.3264 16.2217 3.51454 16.2721 3.66162 16.1872C3.80874 16.1023 3.85915 15.9141 3.77421 15.767L3.37525 15.076L5.55354 13.8546C6.2723 13.4515 7.12092 13.3512 7.88167 13.579C9.79144 14.1509 10.021 14.8225 11.154 14.9915C11.1568 14.9919 11.1596 14.9923 11.1623 14.9926L13.631 15.2922C14.0217 15.3524 14.3236 15.6832 14.3723 16.1021L14.3616 16.278L11.2235 16.4829C11.0539 16.494 10.9255 16.6404 10.9366 16.81C10.9472 16.9727 11.0825 17.0975 11.2432 17.0975C11.25 17.0975 11.2568 17.0973 11.2636 17.0969C14.5849 16.7968 15.3202 17.0487 16.6676 16.3403C19.0162 15.1048 18.884 15.178 18.9151 15.1559C19.1051 15.0213 19.36 15.0728 19.4925 15.2781C19.6157 15.4691 19.5906 15.7258 19.4359 15.8839Z" fill="#2C2C2C"/>
</g>
<defs>
<clipPath id="clip0_87_1213">
<rect width="21" height="21" fill="white"/>
</clipPath>
</defs>
</svg>
