<svg width="21" height="21" viewBox="0 0 21 21" fill="none" xmlns="http://www.w3.org/2000/svg">
<path d="M20.962 17.0013C20.8635 16.5271 20.5847 16.1219 20.177 15.8603C19.7692 15.5988 19.2849 15.5144 18.8126 15.6223L16.6237 16.1235V15.2287C17.0627 14.8152 17.5198 14.2752 17.8448 13.7818C18.4149 12.9164 18.8183 11.9662 19.0439 10.9579C19.3121 9.7584 19.3179 8.48851 19.0604 7.28512C19.013 7.0637 18.7949 6.92239 18.5735 6.96998C18.3519 7.01724 18.2109 7.2353 18.2582 7.45688C18.4912 8.54523 18.486 9.69399 18.2433 10.7788C18.0395 11.6898 17.6749 12.5484 17.1598 13.3304C17.0071 13.5623 16.8219 13.8055 16.6237 14.0378V9.49147C16.6237 9.26493 16.4401 9.08132 16.2135 9.08132H12.969V4.7013C12.969 4.4754 12.7861 4.29195 12.5602 4.29115L8.90552 4.27881C8.90504 4.27881 8.90472 4.27881 8.90424 4.27881C8.79561 4.27881 8.69147 4.32175 8.61473 4.39849C8.5375 4.4754 8.49408 4.57986 8.49408 4.68896V6.96741H5.24904C5.02265 6.96741 4.83888 7.15102 4.83888 7.37757V11.4392H3.925V10.8822C3.925 10.6558 3.74139 10.4722 3.51485 10.4722H3.09412C3.0225 10.0779 2.981 9.67733 2.97123 9.27742C2.9472 8.30507 3.10133 7.3537 3.42913 6.44943C3.50556 6.23858 3.59239 6.02838 3.68708 5.8249C3.78273 5.61951 3.69365 5.37549 3.48841 5.27985C3.28301 5.18452 3.039 5.27328 2.94351 5.47867C2.83857 5.70394 2.74244 5.93658 2.65801 6.16985C2.29527 7.17041 2.1248 8.22287 2.15108 9.29761C2.16085 9.69046 2.19834 10.0836 2.26195 10.4722H0.410156C0.183609 10.4722 0 10.6558 0 10.8823V18.0918C0 18.3183 0.183609 18.5019 0.410156 18.5019H3.51485C3.74139 18.5019 3.925 18.3183 3.925 18.0918V17.7018H5.4679L11.7178 20.1531C12.3013 20.3821 12.9126 20.4973 13.527 20.4973C13.9367 20.4973 14.3481 20.446 14.7533 20.343L19.6519 19.0979C20.5818 18.8616 21.1572 17.9407 20.962 17.0013ZM15.8035 9.90163V16.3113L14.707 16.5623C14.5891 16.5893 14.4699 16.6106 14.35 16.6272C13.8931 16.6902 13.4269 16.6769 12.9747 16.5873C12.9728 16.5868 12.9709 16.5865 12.969 16.586V15.9641C13.2817 15.4975 13.3854 14.906 13.2215 14.3661C13.1758 14.2155 13.1109 14.0702 13.0284 13.9361C13.0096 13.9056 12.9901 13.8758 12.9698 13.8467C12.9696 13.8462 12.9693 13.8459 12.969 13.8454V9.90147H15.8035V9.90163ZM9.31439 5.10056L12.1488 5.11002V13.1939L10.5647 12.5383L9.31439 12.0207V5.10056ZM5.6592 7.78772H8.4936V11.6808L7.98491 11.4703C7.93508 11.4496 7.88173 11.4391 7.82806 11.4391H5.6592V7.78772ZM3.10469 17.6816H0.820313V11.2923H2.75542C2.75622 11.2923 2.75718 11.2925 2.75814 11.2925C2.75894 11.2925 2.75958 11.2923 2.76038 11.2923H3.10469V17.6816ZM19.4499 18.3029L14.5513 19.548C13.7056 19.7628 12.8294 19.7079 12.0173 19.3895L5.69525 16.9098C5.6475 16.8911 5.59671 16.8816 5.54544 16.8816H3.925V12.2595H7.74635L10.4002 13.358L11.8524 13.9591C12.3662 14.1722 12.6121 14.775 12.4015 15.2881C12.3592 15.3911 12.3068 15.489 12.2372 15.5764C11.9804 15.9005 11.5576 16.0434 11.1622 15.9473C11.159 15.9465 11.1558 15.9457 11.1526 15.9449C11.1289 15.9389 11.1053 15.932 11.0819 15.9244L8.32217 14.8634C8.29974 14.8547 8.28788 14.8503 8.28788 14.8503C8.07656 14.7689 7.83927 14.8744 7.75788 15.0859C7.67665 15.2973 7.78208 15.5347 7.99356 15.6159C7.99356 15.6159 9.54959 16.2142 10.7362 16.6718C10.76 16.6811 10.7837 16.6897 10.8076 16.6977L11.7188 17.0481C11.9942 17.154 12.2683 17.2594 12.555 17.3327C13.0417 17.457 13.5469 17.507 14.0487 17.4796C14.3316 17.4642 14.6141 17.4251 14.8903 17.362L16.3052 17.0382C16.3066 17.0379 16.308 17.0372 16.3095 17.0369L18.9957 16.422C19.2512 16.3635 19.5135 16.4092 19.734 16.5506C19.9547 16.6923 20.1055 16.9116 20.1589 17.1683C20.2646 17.6766 19.9531 18.1751 19.4499 18.3029Z" fill="#2C2C2C"/>
<path d="M5.24521 3.45044C5.34326 3.45044 5.44163 3.41551 5.51998 3.3447C6.25185 2.68364 7.12584 2.15637 8.04789 1.81975C9.04684 1.45509 10.1419 1.29952 11.2149 1.37002C11.9828 1.42049 12.7352 1.58439 13.451 1.85708C13.6625 1.93767 13.8997 1.8316 13.9802 1.6198C14.061 1.40815 13.9548 1.17119 13.743 1.0906C12.9509 0.788749 12.1184 0.607383 11.2687 0.551467C10.0828 0.473601 8.87172 0.645675 7.76655 1.04926C6.74644 1.42161 5.77953 2.00496 4.97028 2.73587C4.80205 2.88776 4.78891 3.14715 4.9408 3.31522C5.0217 3.40494 5.13322 3.45044 5.24521 3.45044Z" fill="#2C2C2C"/>
<path d="M14.5562 6.37765C14.6339 6.4451 14.7297 6.47811 14.825 6.47811C14.9396 6.47811 15.0537 6.43036 15.1349 6.33711L18.5094 2.45265C18.6581 2.2817 18.6398 2.02262 18.4688 1.8741C18.2977 1.72558 18.0388 1.74369 17.8903 1.91464L14.5156 5.79911C14.367 5.97006 14.3852 6.22913 14.5562 6.37765Z" fill="#2C2C2C"/>
<path d="M17.5795 4.62402C17.0117 4.62402 16.5498 5.08593 16.5498 5.65374C16.5498 6.22155 17.0117 6.68346 17.5795 6.68346C18.1473 6.68346 18.6092 6.22139 18.6092 5.65374C18.6092 5.08593 18.1473 4.62402 17.5795 4.62402ZM17.5795 5.86314C17.464 5.86314 17.3701 5.76926 17.3701 5.65374C17.3701 5.53838 17.464 5.44434 17.5795 5.44434C17.6949 5.44434 17.7889 5.53838 17.7889 5.65374C17.7889 5.76926 17.6949 5.86314 17.5795 5.86314Z" fill="#2C2C2C"/>
<path d="M15.3022 3.71093C15.87 3.71093 16.3319 3.24902 16.3319 2.68121C16.3319 2.1134 15.87 1.65149 15.3022 1.65149C14.7344 1.65149 14.2725 2.1134 14.2725 2.68121C14.2725 3.24902 14.7344 3.71093 15.3022 3.71093ZM15.3022 2.47164C15.4177 2.47164 15.5116 2.56569 15.5116 2.68121C15.5116 2.79656 15.4177 2.89061 15.3022 2.89061C15.1867 2.89061 15.0928 2.79656 15.0928 2.68121C15.0928 2.56569 15.1867 2.47164 15.3022 2.47164Z" fill="#2C2C2C"/>
<path d="M3.7865 4.41437C3.85219 4.57202 4.01385 4.67616 4.18513 4.66719C4.35448 4.65838 4.50284 4.54382 4.55523 4.38296C4.6081 4.22066 4.55042 4.03577 4.41472 3.93211C4.27645 3.82669 4.08227 3.82012 3.93743 3.91641C3.77673 4.02328 3.71232 4.23637 3.7865 4.41437Z" fill="#2C2C2C"/>
</svg>
