<svg width="21" height="21" viewBox="0 0 21 21" fill="none" xmlns="http://www.w3.org/2000/svg">
<g clip-path="url(#clip0_94_1945)">
<path d="M16.4824 12.1126C16.4824 12.1126 13.8328 10.4777 13.8295 10.4757C13.6388 10.358 13.382 10.42 13.2647 10.6093C13.1471 10.799 13.2095 11.0573 13.3984 11.1737C13.3984 11.1737 16.0496 12.8096 16.0513 12.8106C16.2419 12.9282 16.4985 12.8677 16.6157 12.6769C16.7328 12.4861 16.6731 12.2302 16.4824 12.1126Z" fill="#2C2C2C"/>
<path d="M12.218 9.5531C11.956 9.55306 11.7585 9.80243 11.8184 10.0574C11.8422 10.1589 11.912 10.2512 12.004 10.3094C12.0671 10.3494 12.1407 10.3734 12.2171 10.3734C12.3606 10.3734 12.4915 10.3009 12.5665 10.1787C12.7264 9.91839 12.5254 9.55314 12.218 9.5531Z" fill="#2C2C2C"/>
<path d="M7.97102 10.5881C7.85532 10.4038 7.58855 10.3443 7.40534 10.46C7.40534 10.46 4.77288 12.12 4.76845 12.1228C4.57875 12.2424 4.52088 12.4987 4.64036 12.6882C4.71217 12.8022 4.85077 12.869 4.98796 12.8729C5.06515 12.875 5.14189 12.8573 5.20608 12.8168C5.20608 12.8168 7.84113 11.1548 7.84297 11.1536C8.03263 11.034 8.09022 10.7779 7.97102 10.5881Z" fill="#2C2C2C"/>
<path d="M9.01094 9.52161C8.82046 9.52161 8.65357 9.65548 8.61145 9.84104C8.55407 10.0938 8.75418 10.3419 9.01176 10.3419C9.20186 10.3419 9.3697 10.2081 9.41166 10.0224C9.46912 9.76807 9.27085 9.52161 9.01094 9.52161Z" fill="#2C2C2C"/>
<path d="M20.8994 18.6811C20.7507 18.5101 20.4917 18.4921 20.3207 18.6407C19.8834 19.021 19.4786 19.4152 18.9048 19.5738C18.2669 19.7501 17.6606 19.611 17.0833 19.3223L19.2193 12.1354C19.2725 11.9566 19.1982 11.7644 19.0387 11.6678L17.0625 10.4703V6.97362C17.0625 6.74713 16.8789 6.56347 16.6523 6.56347H15.832V5.333C15.832 5.10651 15.6484 4.92284 15.4219 4.92284H14.1299V3.69238C14.1299 3.46589 13.9462 3.28222 13.7197 3.28222H11.7305V0.411132C11.7305 0.184644 11.5468 0.000976562 11.3203 0.000976562H9.67968C9.45316 0.000976562 9.26953 0.184644 9.26953 0.411132V3.28222H7.28028C7.05375 3.28222 6.87012 3.46589 6.87012 3.69238V4.92284H5.57813C5.3516 4.92284 5.16798 5.10651 5.16798 5.333V6.56347H4.34767C4.12114 6.56347 3.93751 6.74713 3.93751 6.97362V10.4703L1.9613 11.6677C1.80175 11.7644 1.72755 11.9566 1.78071 12.1353C1.78071 12.1353 3.91151 19.3045 3.91241 19.3076C3.87603 19.1852 3.2197 19.1046 3.10367 19.0896C1.90942 18.935 1.00129 19.5333 0.141033 20.2813C-0.0299197 20.4299 -0.0479665 20.6889 0.100633 20.8599C0.242505 21.0231 0.506522 21.0504 0.679239 20.9003C1.5655 20.1299 2.56468 19.5426 3.73731 20.129C4.79814 20.6593 5.89621 20.8868 7.00112 20.3053C7.89206 19.8363 8.75183 19.4314 9.74629 19.9049L10.7687 20.3917C11.6434 20.8083 12.642 20.7987 13.5085 20.3654C14.0424 20.0984 14.5851 19.7432 15.195 19.7012C15.7928 19.6602 16.3705 19.8828 16.8958 20.1456C17.5897 20.4926 18.4021 20.562 19.1473 20.3495C19.8337 20.1538 20.3332 19.7167 20.8589 19.2596C21.0299 19.111 21.048 18.852 20.8994 18.6811ZM16.2422 7.38378V9.97329L11.9684 7.38378H16.2422ZM10.0898 0.821288H10.9101V3.28222H10.0898V0.821288ZM7.69043 4.10253H13.3096V4.92284H7.69043V4.10253ZM4.75782 7.38378H9.03156L4.75782 9.97329V7.38378ZM10.0898 19.16C10.0899 19.0871 9.50516 18.9526 9.42867 18.9361C8.71483 18.7815 7.9485 18.8797 7.30136 19.2203C6.83181 19.4674 6.3788 19.7557 5.84178 19.8249C5.8408 19.825 5.83981 19.8251 5.83883 19.8252C5.52506 19.8634 5.20391 19.8403 4.90023 19.7517L2.65721 12.2052L10.0898 7.70173C10.0898 7.70173 10.0898 19.1595 10.0898 19.16ZM5.98829 6.56347V5.74315H15.0117V6.56347H5.98829ZM16.3251 18.9936C16.3297 18.8667 15.1751 18.8678 15.0977 18.876C14.3858 18.9513 13.7699 19.3176 13.1416 19.6318C12.3994 20.0029 11.6357 19.8962 10.9101 19.5506V7.70173L18.3428 12.2052L16.3251 18.9936Z" fill="#2C2C2C"/>
</g>
<defs>
<clipPath id="clip0_94_1945">
<rect width="21" height="21" fill="white"/>
</clipPath>
</defs>
</svg>
