<svg width="21" height="21" viewBox="0 0 21 21" fill="none" xmlns="http://www.w3.org/2000/svg">
<g clip-path="url(#clip0_87_1271)">
<path d="M8.04228 10.8261C8.15015 10.8261 8.25018 10.7696 8.3058 10.6772L8.86078 9.75535L9.5962 10.924C9.6537 11.0154 9.75419 11.0697 9.863 11.0677C9.971 11.0654 10.0699 11.0067 10.1235 10.9129L11.3075 8.84427L12.8975 11.742C12.9506 11.8387 13.0514 11.8996 13.1618 11.9016C13.1636 11.9016 13.1654 11.9017 13.1672 11.9017C13.2755 11.9017 13.376 11.8447 13.4315 11.7515L14.4221 10.0884H16.811C16.9809 10.0884 17.1186 9.9507 17.1186 9.78082C17.1186 9.61093 16.9809 9.4732 16.811 9.4732H14.2473C14.1389 9.4732 14.0385 9.53025 13.9831 9.6234L13.1782 10.9745L11.5828 8.0671C11.5292 7.96953 11.4272 7.9085 11.3159 7.90747C11.3149 7.90747 11.314 7.90747 11.3131 7.90747C11.2028 7.90747 11.1009 7.96649 11.0461 8.06226L9.84401 10.1627L9.11533 9.00476C9.05897 8.91522 8.96066 8.861 8.85496 8.861C8.85398 8.861 8.85295 8.861 8.85193 8.861C8.74512 8.86203 8.64652 8.91842 8.59143 9.00993L7.86841 10.2109H6.12012C5.95023 10.2109 5.8125 10.3486 5.8125 10.5185C5.8125 10.6884 5.95023 10.8261 6.12012 10.8261H8.04228Z" fill="#2C2C2C"/>
<path d="M17.3536 2.28845C17.1838 2.28845 17.046 2.42618 17.046 2.59607V3.5035H16.1387C15.9688 3.5035 15.8311 3.64123 15.8311 3.81112C15.8311 3.981 15.9688 4.11873 16.1387 4.11873H17.046V5.0262C17.046 5.19609 17.1838 5.33382 17.3536 5.33382C17.5235 5.33382 17.6613 5.19609 17.6613 5.0262V4.11873H18.5686C18.7385 4.11873 18.8762 3.981 18.8762 3.81112C18.8762 3.64123 18.7385 3.5035 18.5686 3.5035H17.6613V2.59607C17.6613 2.42618 17.5235 2.28845 17.3536 2.28845V2.28845Z" fill="#2C2C2C"/>
<path d="M18.439 12.828C19.9377 11.2258 20.3672 8.80305 19.5434 6.72602C20.4274 6.05977 21 5.00111 21 3.81109C21 1.80029 19.3642 0.164429 17.3535 0.164429C16.5276 0.164429 15.7188 0.447888 15.0761 0.962592C14.9435 1.06878 14.9221 1.26238 15.0283 1.39498C15.1345 1.52754 15.3281 1.54899 15.4607 1.4428C16.0024 1.00894 16.6569 0.779663 17.3535 0.779663C19.0249 0.779663 20.3847 2.13958 20.3847 3.81109C20.3847 5.48329 19.0249 6.8437 17.3535 6.8437C15.7973 6.8437 14.5117 5.66499 14.341 4.15352C14.3407 4.15004 14.3401 4.14651 14.3396 4.14298C14.3277 4.03392 14.3211 3.92326 14.3211 3.81109C14.3211 3.33629 14.4278 2.88225 14.6381 2.46151C14.7141 2.30954 14.6525 2.12477 14.5005 2.04877C14.3485 1.97285 14.1638 2.03441 14.0878 2.18633C13.8344 2.69325 13.7059 3.2399 13.7059 3.81104C13.7059 3.86272 13.7072 3.91408 13.7093 3.96526C12.9326 4.2429 12.2076 4.69952 11.6 5.29708L11.2599 5.63136C11.2583 5.62972 11.2571 5.62849 11.2554 5.62685L10.9211 5.29749C9.83957 4.23108 8.42371 3.63513 7.03615 3.66384C5.88156 3.68763 4.85986 4.14003 4.08179 4.97183C3.96572 5.0961 3.97228 5.29093 4.09656 5.407C4.22084 5.52267 4.41525 5.51651 4.53132 5.39224C5.19332 4.68431 6.06367 4.29917 7.04886 4.27907C8.27113 4.25405 9.52498 4.78521 10.4893 5.73554L10.8239 6.0653C10.9855 6.22444 11.1234 6.3036 11.2608 6.3036C11.3969 6.3036 11.5327 6.22567 11.6914 6.06981L12.0314 5.73554C12.5424 5.23334 13.145 4.8423 13.7902 4.59149C14.1485 6.22916 15.61 7.45889 17.3535 7.45889C17.9504 7.45889 18.5142 7.31468 19.012 7.05923C19.6937 8.89267 19.3023 11.0019 17.9918 12.405L13.5758 16.9255L13.2103 16.9968C13.1217 17.014 13.0434 17.0296 12.972 17.044C12.5085 17.1379 12.3978 17.1601 11.8552 17.0764L9.224 16.5953C8.86553 16.4714 8.90162 16.1859 8.92172 16.1002C8.9533 15.9669 9.07717 15.7516 9.34336 15.7918C9.34582 15.7922 9.34828 15.7926 9.35074 15.793C9.46928 15.8082 9.59643 15.8246 9.72932 15.8414C10.2277 15.9058 10.792 15.9784 11.2932 16.0297C12.3186 16.1334 12.8986 15.5953 13.0192 15.0154C13.1418 14.4243 12.8051 13.6385 11.7756 13.3099C11.7633 13.3062 11.7506 13.303 11.7374 13.3005L10.0431 12.9896C9.12352 12.821 8.4082 12.951 7.32539 13.1479C7.0391 13.2 6.71426 13.2587 6.3525 13.3181L5.54941 13.4502L5.30209 13.1971L4.52895 12.4055C3.08396 10.8564 2.76363 8.42989 3.75129 6.50339C3.82881 6.35245 3.76893 6.16706 3.61799 6.08954C3.46664 6.01202 3.28125 6.0715 3.20373 6.22284C2.09959 8.37698 2.46053 11.093 4.08187 12.828C4.08352 12.8296 4.08516 12.8313 4.08639 12.8329L4.80826 13.572L3.46385 13.793V13.7579C3.46385 13.5204 3.2543 13.3272 2.99672 13.3272H0.465937C0.209016 13.3272 0 13.5204 0 13.7579V19.1705C0 19.408 0.209016 19.6013 0.465937 19.6013H2.99677C3.25434 19.6013 3.46389 19.408 3.46389 19.1705V19.1332L6.23027 19.886L8.78391 20.5799C9.36674 20.7608 9.83637 20.8355 10.265 20.8355C10.9434 20.8355 11.5196 20.6493 12.2809 20.4032C12.3486 20.3814 12.4179 20.3589 12.4893 20.3359L17.5215 18.7223C18.1047 18.5353 18.5198 18.1153 18.6313 17.5989C18.7179 17.1986 18.5973 16.8032 18.3086 16.5411C18.0748 16.3291 17.5252 16.0248 16.4657 16.3599L14.6389 16.7171L18.4345 12.8329C18.4361 12.8313 18.4373 12.8296 18.439 12.828V12.828ZM0.615234 18.986V13.9423H2.84862V14.1537C2.84862 14.1544 2.84854 14.155 2.84854 14.1556V18.7305C2.84854 18.7309 2.84862 18.7312 2.84862 18.7316V18.986H0.615234ZM16.6359 16.9513C17.2036 16.7692 17.6626 16.7856 17.8955 16.9968C18.021 17.1108 18.0703 17.2831 18.0301 17.4685C17.9653 17.7675 17.7048 18.0173 17.3336 18.1362L12.301 19.7502C12.2292 19.7732 12.1595 19.7957 12.0914 19.8179C10.8876 20.2067 10.2834 20.4023 8.96109 19.991C8.95781 19.9897 8.95412 19.9889 8.95043 19.9877L3.46385 18.4956V14.4165L6.45217 13.9256C6.81885 13.8653 7.14656 13.8054 7.43572 13.7529C8.48777 13.5618 9.12311 13.4465 9.93193 13.595L11.6066 13.9022C12.2596 14.1167 12.4847 14.5634 12.4167 14.8903C12.3383 15.268 11.9216 15.4751 11.3556 15.4177C10.8626 15.3673 10.3023 15.2951 9.80807 15.2315C9.676 15.2143 9.54926 15.1979 9.43154 15.1831C8.84338 15.0962 8.42871 15.5075 8.32289 15.9599C8.30033 16.0563 8.29131 16.1589 8.29787 16.2622C8.32043 16.6363 8.54396 17.0243 9.0542 17.1871C9.06691 17.1912 9.23672 17.2228 9.23672 17.2228L11.7489 17.6822C11.7514 17.6826 11.7543 17.683 11.7571 17.6834C12.2756 17.7642 12.4999 17.7573 12.8178 17.7011C12.9011 17.6863 13.2407 17.6174 13.328 17.6006L13.8817 17.4923C13.8817 17.4923 16.6245 16.955 16.6359 16.9513V16.9513Z" fill="#2C2C2C"/>
</g>
<defs>
<clipPath id="clip0_87_1271">
<rect width="21" height="21" fill="white"/>
</clipPath>
</defs>
</svg>
