<svg width="21" height="21" viewBox="0 0 21 21" fill="none" xmlns="http://www.w3.org/2000/svg">
<g clip-path="url(#clip0_87_1278)">
<path d="M20.886 13.1677L19.3389 11.9985V9.76172C19.3386 9.55512 19.2564 9.35705 19.1103 9.21096C18.9642 9.06487 18.7662 8.98268 18.5596 8.98242H18.1084C17.9018 8.98268 17.7037 9.06487 17.5576 9.21096C17.4115 9.35705 17.3294 9.55512 17.3291 9.76172V10.48L16.5652 9.90265V7.97344C16.565 7.76682 16.4828 7.56873 16.3367 7.42263C16.1906 7.27653 15.9925 7.19436 15.7859 7.19414H15.3348C15.1281 7.19436 14.93 7.27653 14.7839 7.42263C14.6379 7.56873 14.5557 7.76682 14.5555 7.97344V8.38359L12.3375 6.70819L12.4113 2.87848C12.4223 2.4414 12.3457 2.00655 12.1861 1.59954C12.0264 1.19252 11.7869 0.821591 11.4816 0.508594C11.1435 0.171117 10.8132 0 10.5 0C10.1868 0 9.85655 0.171117 9.51841 0.508594C9.21326 0.821527 8.97381 1.19236 8.81416 1.59925C8.65451 2.00614 8.5779 2.44087 8.58884 2.87782L8.66266 6.70688L6.44454 8.38359V7.97344C6.44432 7.76682 6.36215 7.56873 6.21605 7.42263C6.06995 7.27653 5.87186 7.19436 5.66524 7.19414H5.21407C5.00745 7.19436 4.80936 7.27653 4.66326 7.42263C4.51716 7.56873 4.43499 7.76682 4.43477 7.97344V9.90281L3.6709 10.4801V9.76172C3.67064 9.55512 3.58845 9.35705 3.44236 9.21096C3.29627 9.06487 3.0982 8.98268 2.8916 8.98242H2.44043C2.23383 8.98268 2.03576 9.06487 1.88967 9.21096C1.74358 9.35705 1.66139 9.55512 1.66113 9.76172V11.9985L0.114844 13.1677C0.0792655 13.1943 0.050371 13.2289 0.0304406 13.2686C0.0105103 13.3084 8.94663e-05 13.3522 4.23365e-07 13.3967V15.3861C-6.44097e-05 15.4238 0.00731764 15.4612 0.0217233 15.4961C0.0361289 15.5309 0.0572747 15.5626 0.0839482 15.5893C0.110622 15.6159 0.142298 15.6371 0.177161 15.6515C0.212024 15.6659 0.249388 15.6733 0.28711 15.6732C0.3303 15.6733 0.372939 15.6635 0.411797 15.6447L2.70867 14.5368L7.94817 12.0094L8.75716 11.6192L8.85035 16.4612L4.71712 19.329C4.67904 19.3554 4.64793 19.3907 4.62644 19.4317C4.60495 19.4728 4.59374 19.5184 4.59375 19.5648V20.7132C4.59388 20.7893 4.62418 20.8622 4.67801 20.916C4.73183 20.9697 4.80478 21 4.88086 21C4.90216 20.9999 4.92339 20.9976 4.94419 20.9929L9.32827 20.0014C9.39627 20.1264 9.47217 20.2469 9.55549 20.3623C9.86869 20.7911 10.1776 21 10.5 21C10.8224 21 11.1313 20.7916 11.4443 20.3626C11.5277 20.2472 11.6036 20.1267 11.6717 20.0017L16.0558 20.9933C16.0766 20.9979 16.0978 21.0003 16.1191 21.0003C16.1953 21.0003 16.2683 20.97 16.3221 20.9162C16.3759 20.8624 16.4062 20.7894 16.4062 20.7132V19.5648C16.4063 19.5184 16.395 19.4728 16.3736 19.4317C16.3521 19.3907 16.321 19.3554 16.2829 19.329L12.1496 16.4617L12.2428 11.6197L13.0518 12.0094L18.2913 14.5359L20.5882 15.6439C20.6271 15.6627 20.6697 15.6725 20.7129 15.6724C20.7506 15.6725 20.788 15.6651 20.8228 15.6507C20.8577 15.6363 20.8894 15.6151 20.916 15.5885C20.9427 15.5618 20.9639 15.5301 20.9783 15.4952C20.9927 15.4604 21.0001 15.423 21 15.3853V13.3967C21 13.3523 20.9897 13.3085 20.9699 13.2688C20.9501 13.229 20.9214 13.1944 20.886 13.1677ZM5.00899 7.97344C5.00904 7.91906 5.03066 7.86692 5.06911 7.82847C5.10756 7.79002 5.15969 7.7684 5.21407 7.76836H5.66524C5.71963 7.76836 5.77179 7.78997 5.81025 7.82843C5.84871 7.86689 5.87032 7.91905 5.87032 7.97344V8.8182L5.00899 9.46903V7.97344ZM2.23535 9.76172C2.23535 9.70733 2.25696 9.65517 2.29542 9.61671C2.33388 9.57825 2.38604 9.55664 2.44043 9.55664H2.8916C2.94599 9.55664 2.99815 9.57825 3.03661 9.61671C3.07507 9.65517 3.09668 9.70733 3.09668 9.76172V10.9138L2.23535 11.5646V9.76172ZM7.53638 11.571L2.87109 13.821V13.3288L7.53638 10.5164V11.571ZM8.74453 10.9881L8.11059 11.2941V10.0078C8.11062 9.95695 8.09714 9.90699 8.07152 9.86305C8.0459 9.81911 8.00907 9.78276 7.96479 9.75773C7.92052 9.73269 7.87038 9.71987 7.81952 9.72057C7.76866 9.72127 7.71891 9.73547 7.67534 9.76172L2.43584 12.9201C2.39344 12.9456 2.35837 12.9817 2.33402 13.0248C2.30967 13.0679 2.29688 13.1165 2.29688 13.166V14.0981L0.574219 14.9297V13.5396L2.12084 12.3703L3.55638 11.2855L5.02917 10.1727L6.33002 9.1898L8.67612 7.41792L8.69039 8.15932L8.74453 10.9881ZM5.16797 20.3531V19.7151L8.86364 17.1513L8.88612 18.3173C8.893 18.7084 8.96166 19.096 9.08955 19.4657L5.16797 20.3531ZM10.9807 20.0235C10.7085 20.3962 10.544 20.4258 10.5 20.4258C10.456 20.4258 10.2915 20.3967 10.0193 20.024C9.91392 19.8785 9.82277 19.7233 9.74712 19.5604C9.74515 19.5554 9.74285 19.5508 9.74055 19.5461C9.56203 19.157 9.46654 18.735 9.46017 18.3069L9.42736 16.6071V16.6059L9.32269 11.1618L9.23951 6.8442L9.16289 2.86814C9.15335 2.50839 9.2158 2.15036 9.34659 1.81509C9.47737 1.47981 9.67385 1.17406 9.92447 0.915797C10.1446 0.694969 10.3491 0.574219 10.5 0.574219C10.6509 0.574219 10.8554 0.695461 11.0755 0.915797C11.3262 1.17402 11.5227 1.47976 11.6535 1.81505C11.7843 2.15033 11.8467 2.50838 11.8371 2.86814L11.7605 6.84338L11.6773 11.161L11.5726 16.6051V16.6062L11.5398 18.3061C11.5335 18.7341 11.438 19.1562 11.2594 19.5453C11.2571 19.5499 11.2549 19.5546 11.2529 19.5594C11.1772 19.7224 11.086 19.8778 10.9807 20.0235ZM15.832 19.7151V20.3531L11.9109 19.4662C12.0388 19.0965 12.1075 18.7089 12.1144 18.3177L12.1369 17.1516L15.832 19.7151ZM17.9033 9.76172C17.9033 9.70733 17.9249 9.65517 17.9634 9.61671C18.0018 9.57825 18.054 9.55664 18.1084 9.55664H18.5596C18.6139 9.55668 18.6661 9.5783 18.7045 9.61675C18.743 9.6552 18.7646 9.70734 18.7646 9.76172V11.5646L18.2602 11.1835L17.9033 10.9138V9.76172ZM15.1297 7.97344C15.1297 7.91905 15.1513 7.86689 15.1897 7.82843C15.2282 7.78997 15.2804 7.76836 15.3348 7.76836H15.7859C15.8403 7.7684 15.8924 7.79002 15.9309 7.82847C15.9693 7.86692 15.991 7.91906 15.991 7.97344V9.46903L15.1297 8.8182V7.97344ZM18.1289 13.821L13.4636 11.571V10.5164L18.1289 13.3281V13.821ZM20.4258 14.9297L18.7031 14.0981V13.166C18.7031 13.1165 18.6904 13.0678 18.666 13.0247C18.6417 12.9816 18.6066 12.9455 18.5642 12.9199L13.3247 9.76172C13.2811 9.73547 13.2313 9.72127 13.1805 9.72057C13.1296 9.71987 13.0795 9.73269 13.0352 9.75773C12.9909 9.78276 12.9541 9.81911 12.9285 9.86305C12.9029 9.90699 12.8894 9.95695 12.8894 10.0078V11.2941L12.2555 10.9881L12.3242 7.41759L14.6703 9.18947L15.9712 10.1724L17.4439 11.2852L17.5186 11.3416L20.4258 13.5396V14.9297Z" fill="#2C2C2C"/>
</g>
<defs>
<clipPath id="clip0_87_1278">
<rect width="21" height="21" fill="white"/>
</clipPath>
</defs>
</svg>
