<svg width="21" height="21" viewBox="0 0 21 21" fill="none" xmlns="http://www.w3.org/2000/svg">
<g clip-path="url(#clip0_94_1907)">
<path d="M20.6925 17.9188C20.2099 17.9188 19.9555 18.0171 19.7311 18.1039C19.5317 18.181 19.3595 18.2476 18.9916 18.2476C18.9001 18.2476 18.8208 18.2434 18.7501 18.2361C17.6379 16.9842 16.0619 16.0413 14.2408 15.4958C14.3775 12.4811 14.8087 10.6031 15.0776 9.69391L17.2481 11.5906C17.3051 11.6403 17.3772 11.6666 17.4505 11.6666C17.4853 11.6666 17.5203 11.6607 17.5541 11.6486C17.6591 11.611 17.7356 11.5196 17.7539 11.4096C17.7641 11.3484 17.994 9.90305 17.1323 9.09746C17.002 8.97564 16.855 8.87634 16.6925 8.79866C16.9522 8.81244 17.2364 8.85903 17.5432 8.95485C17.6631 8.99234 17.7937 8.95308 17.8731 8.85579C17.9526 8.7585 17.9649 8.6227 17.9043 8.5127C17.8971 8.4997 17.7251 8.19019 17.4434 7.88442C17.0402 7.44674 16.6013 7.22534 16.1749 7.24424C15.8025 7.26073 15.4567 7.45314 15.1402 7.81777C15.0808 7.33107 14.8999 6.97219 14.5966 6.74722C13.7983 6.15519 12.5234 6.78995 12.4696 6.81727C12.3579 6.87387 12.2917 6.99249 12.3021 7.11722C12.3125 7.24195 12.3975 7.34793 12.517 7.38526C12.8247 7.48136 13.0863 7.60547 13.3092 7.74275C13.1298 7.71461 12.9514 7.7142 12.7741 7.74213C11.6187 7.92408 11.0095 9.2443 10.9841 9.30041C10.9385 9.40139 10.9506 9.51906 11.016 9.60856C11.0743 9.68841 11.1669 9.73472 11.2644 9.73472C11.2761 9.73472 11.288 9.73406 11.2998 9.73267L13.7561 9.44798C13.6512 9.64211 13.5351 9.87815 13.415 10.1597C13.3483 10.316 13.4209 10.4967 13.5771 10.5634C13.6165 10.5802 13.6575 10.5881 13.6978 10.5881C13.8173 10.5881 13.931 10.5181 13.9808 10.4012C14.1946 9.90026 14.3922 9.5595 14.5223 9.35918L14.5341 9.35783C14.2584 10.2334 13.7877 12.1447 13.6327 15.3305C13.3944 15.2724 13.1525 15.2209 12.9075 15.1761C13.0274 13.7763 13.263 12.5112 13.6091 11.4132C13.6602 11.2512 13.5703 11.0784 13.4082 11.0273C13.2461 10.9762 13.0734 11.0662 13.0223 11.2282C12.6663 12.3576 12.423 13.6522 12.2981 15.0796C11.7119 15.0009 11.1108 14.9596 10.5001 14.9596C10.4846 14.9596 10.4692 14.9601 10.4537 14.9602C10.1748 12.1758 9.69068 9.6202 9.01264 7.36221C8.96379 7.1995 8.79218 7.10721 8.62956 7.15606C8.46685 7.20491 8.37452 7.37644 8.42341 7.53915C9.08647 9.74727 9.56127 12.2484 9.8369 14.976C9.38572 14.9978 8.9412 15.0424 8.5052 15.1077C8.4714 9.66947 7.53796 5.88851 7.25635 4.86935C7.27702 4.82686 7.29818 4.78502 7.31972 4.74372C7.34921 4.75713 7.37874 4.77091 7.40827 4.78506C7.55277 5.09465 7.79813 5.66005 8.08167 6.47922C8.12572 6.60645 8.24487 6.68631 8.37235 6.68631C8.40573 6.68631 8.43969 6.68085 8.473 6.66929C8.63354 6.61371 8.71864 6.43853 8.66307 6.27795C8.53366 5.90414 8.41234 5.5822 8.30393 5.31076C9.37198 6.04014 10.2616 6.97662 10.2738 6.9895C10.3322 7.05143 10.4133 7.08605 10.4975 7.08605C10.5086 7.08605 10.5196 7.08543 10.5307 7.08424C10.6265 7.07386 10.7118 7.01927 10.7614 6.93667C10.7876 6.89286 11.3369 5.95356 11.0054 4.7662L12.7936 4.815C12.7964 4.81509 12.7992 4.81513 12.802 4.81513C12.908 4.81513 13.0068 4.76045 13.0631 4.67014C13.1208 4.5774 13.1251 4.46104 13.0742 4.36432C13.0389 4.29726 12.1916 2.71865 10.5771 2.48166C10.0087 2.39819 9.42494 2.49204 8.82988 2.76061C9.31354 2.3717 9.95375 1.98824 10.7923 1.69961C10.9153 1.65732 10.9983 1.54228 10.9998 1.41226C11.0013 1.28224 10.9209 1.16534 10.7989 1.12022C10.7122 1.08819 8.66262 0.34642 7.5013 1.33076C7.4666 1.36021 7.43341 1.39105 7.40113 1.4228C7.02264 0.981959 6.48935 0.7914 6.01554 0.954519C5.54312 1.11711 5.23923 1.59629 5.21179 2.17638C5.1668 2.17125 5.12164 2.16731 5.07611 2.16547C3.55496 2.10501 2.39606 3.95052 2.34746 4.02914C2.27908 4.13976 2.28766 4.28139 2.36883 4.38294C2.45 4.4845 2.58621 4.52404 2.70922 4.48175C3.54061 4.19558 4.27803 4.10437 4.89782 4.11298C4.26859 4.26814 3.75442 4.5525 3.36014 4.96566C2.23351 6.14613 2.53728 7.91178 2.55077 7.98638C2.57021 8.09389 2.64519 8.18301 2.74777 8.22054C2.78214 8.23313 2.81791 8.23929 2.85347 8.23929C2.92389 8.23929 2.99341 8.21509 3.04936 8.16886L4.42868 7.02986C4.89819 8.16972 5.90923 8.57201 5.95689 8.59034C5.99261 8.60408 6.0301 8.61089 6.06738 8.61089C6.12398 8.61089 6.18022 8.59526 6.22956 8.56466C6.31143 8.51389 6.36475 8.42771 6.37369 8.33178C6.37529 8.31447 6.4953 7.07185 6.8731 5.85844C7.25024 7.46561 7.87232 10.7812 7.89029 15.2149C5.5939 15.6731 3.58724 16.7311 2.25062 18.2353C2.17868 18.243 2.09783 18.2474 2.00415 18.2474C1.63756 18.2474 1.46586 18.1808 1.26706 18.1038C1.04311 18.017 0.789308 17.9186 0.307618 17.9186C0.137731 17.9186 0 18.0564 0 18.2263C0 18.3961 0.137731 18.5339 0.307618 18.5339C0.674217 18.5339 0.84591 18.6004 1.04471 18.6775C1.26866 18.7643 1.52246 18.8627 2.00415 18.8627C2.48617 18.8627 2.74018 18.7643 2.96433 18.6775C3.16338 18.6004 3.33524 18.5339 3.70233 18.5339C4.06909 18.5339 4.24087 18.6004 4.43975 18.6775C4.66374 18.7643 4.91763 18.8627 5.39944 18.8627C5.88142 18.8627 6.13543 18.7643 6.35954 18.6775C6.55855 18.6004 6.7304 18.5339 7.09741 18.5339C7.46463 18.5339 7.63661 18.6004 7.8357 18.6775C8.05989 18.7643 8.31398 18.8627 8.79612 18.8627C9.27826 18.8627 9.53236 18.7643 9.75651 18.6775C9.9556 18.6004 10.1276 18.5339 10.4948 18.5339C10.862 18.5339 11.034 18.6004 11.2331 18.6775C11.4573 18.7643 11.7114 18.8627 12.1935 18.8627C12.6757 18.8627 12.9299 18.7643 13.1541 18.6775C13.3533 18.6004 13.5253 18.5339 13.8927 18.5339C14.2598 18.5339 14.4317 18.6004 14.6307 18.6775C14.8548 18.7643 15.1089 18.8627 15.5909 18.8627C16.0733 18.8627 16.3275 18.7643 16.5518 18.6775C16.751 18.6004 16.9231 18.5339 17.2906 18.5339C17.6584 18.5339 17.8307 18.6005 18.0301 18.6775C18.2545 18.7643 18.5089 18.8627 18.9915 18.8627C19.4741 18.8627 19.7285 18.7643 19.9529 18.6775C20.1523 18.6004 20.3246 18.5339 20.6924 18.5339C20.8623 18.5339 21 18.3961 21 18.2263C21 18.0564 20.8624 17.9188 20.6925 17.9188ZM16.2012 7.85895C16.2095 7.85858 16.2178 7.85837 16.226 7.85837C16.4607 7.85837 16.6931 8.0087 16.8891 8.19593C16.3466 8.14368 15.8833 8.2155 15.5171 8.32476C15.7428 8.02789 15.9737 7.86937 16.2012 7.85895ZM16.7104 9.54543C17.0391 9.85145 17.1428 10.324 17.1672 10.7029L15.4676 9.21772C16.0131 9.17457 16.4299 9.28412 16.7104 9.54543ZM11.8614 9.04832C12.0905 8.75022 12.4357 8.41828 12.8698 8.34995C12.9246 8.34129 12.9801 8.33699 13.0362 8.33699C13.3686 8.33699 13.7217 8.48866 14.0914 8.78984L11.8614 9.04832ZM13.4825 7.13084C13.7547 7.08724 14.0368 7.09761 14.2308 7.24199C14.4157 7.37951 14.5207 7.64169 14.5441 8.0155C14.3018 7.71744 13.9589 7.39559 13.4825 7.13084ZM10.3925 6.23833C10.205 6.05762 9.94649 5.81804 9.64019 5.55948C9.24241 5.22373 8.86002 4.93649 8.49478 4.69782L10.3534 4.74856C10.5778 5.35563 10.4975 5.89597 10.3925 6.23833ZM10.4837 3.08988C11.2873 3.20624 11.8751 3.76738 12.2093 4.18373L7.94271 4.06733C8.84153 3.30407 9.6942 2.97557 10.4837 3.08988ZM7.89816 1.801C8.22506 1.52337 8.67365 1.43551 9.11088 1.43551C9.31665 1.43551 9.51993 1.45499 9.70663 1.48329C8.51287 2.06564 7.79165 2.81786 7.37907 3.39151C7.35384 2.64913 7.52738 2.11592 7.89816 1.801ZM5.99298 6.81485C5.91083 7.20655 5.85455 7.554 5.81805 7.81166C5.52454 7.60568 5.12812 7.22849 4.93182 6.61457L6.36545 5.43069C6.22443 5.84364 6.09987 6.30539 5.99298 6.81485ZM3.12142 7.31167C3.12856 6.77765 3.24648 5.97378 3.80819 5.38754C4.31765 4.85581 5.10163 4.58839 6.14585 4.58839C6.23292 4.58839 6.32184 4.59024 6.41249 4.59397L3.12142 7.31167ZM4.83392 3.49196C4.41153 3.49196 3.9426 3.5347 3.43245 3.64298C3.47067 3.6027 3.5105 3.56214 3.55184 3.52174C3.91155 3.17019 4.46338 2.7561 5.05273 2.78042C5.53877 2.80039 6.00373 3.11383 6.44075 3.71447C6.02895 3.59413 5.48697 3.49196 4.83392 3.49196ZM6.76502 3.132C6.47024 2.77628 6.15766 2.51779 5.82859 2.35804C5.79951 1.96441 5.95566 1.62591 6.21582 1.53637C6.47688 1.4465 6.8071 1.61721 7.02662 1.94587C6.86567 2.27428 6.77839 2.67029 6.76502 3.132ZM17.2906 17.9188C16.8084 17.9188 16.5542 18.0172 16.3299 18.1039C16.1306 18.181 15.9585 18.2476 15.591 18.2476C15.2239 18.2476 15.052 18.181 14.8529 18.1039C14.6288 18.0172 14.3748 17.9188 13.8927 17.9188C13.4105 17.9188 13.1563 18.0172 12.9321 18.1039C12.7329 18.181 12.5609 18.2476 12.1936 18.2476C11.8264 18.2476 11.6544 18.181 11.4553 18.1039C11.2311 18.0172 10.977 17.9188 10.4948 17.9188C10.0127 17.9188 9.7586 18.0172 9.53441 18.1039C9.33532 18.181 9.16334 18.2476 8.79612 18.2476C8.42891 18.2476 8.25693 18.181 8.05784 18.1039C7.83365 18.0172 7.57955 17.9188 7.09741 17.9188C6.61544 17.9188 6.36147 18.0172 6.13736 18.1039C5.93835 18.181 5.76649 18.2476 5.39944 18.2476C5.03268 18.2476 4.8609 18.181 4.66202 18.104C4.43799 18.0172 4.1841 17.9188 3.70229 17.9188C3.60853 17.9188 3.52367 17.9226 3.4457 17.9293C4.14255 17.3376 4.98063 16.8333 5.91964 16.4472C7.30774 15.8766 8.89161 15.575 10.5 15.575C12.1086 15.575 13.6928 15.8767 15.081 16.4475C16.0206 16.8338 16.86 17.338 17.5573 17.9302C17.4765 17.923 17.3885 17.9188 17.2906 17.9188Z" fill="#2C2C2C"/>
<path d="M17.2905 19.2339C16.8082 19.2339 16.554 19.3322 16.3297 19.419C16.1304 19.4961 15.9583 19.5627 15.5908 19.5627C15.2237 19.5627 15.0518 19.4961 14.8527 19.419C14.6286 19.3322 14.3746 19.2339 13.8926 19.2339C13.4103 19.2339 13.1562 19.3322 12.9319 19.419C12.7328 19.4961 12.5607 19.5627 12.1934 19.5627C11.8261 19.5627 11.6542 19.4961 11.4551 19.419C11.2309 19.3322 10.9768 19.2339 10.4947 19.2339C10.0125 19.2339 9.75842 19.3322 9.53422 19.419C9.33513 19.4961 9.16316 19.5627 8.79594 19.5627C8.42873 19.5627 8.25675 19.4961 8.05766 19.419C7.83346 19.3322 7.57937 19.2339 7.09723 19.2339C6.61526 19.2339 6.36128 19.3322 6.13717 19.419C5.93817 19.4961 5.76631 19.5627 5.39926 19.5627C5.0325 19.5627 4.86072 19.4961 4.66184 19.4191C4.43785 19.3323 4.18392 19.2339 3.70215 19.2339C3.53226 19.2339 3.39453 19.3716 3.39453 19.5415C3.39453 19.7114 3.53226 19.8491 3.70215 19.8491C4.06891 19.8491 4.24069 19.9157 4.43957 19.9927C4.66356 20.0795 4.91745 20.1779 5.39926 20.1779C5.88124 20.1779 6.13525 20.0795 6.35936 19.9928C6.55837 19.9157 6.73022 19.8491 7.09723 19.8491C7.46445 19.8491 7.63643 19.9157 7.83552 19.9928C8.05971 20.0795 8.3138 20.1779 8.79594 20.1779C9.27808 20.1779 9.53217 20.0795 9.75633 19.9928C9.95546 19.9157 10.1274 19.8491 10.4946 19.8491C10.8618 19.8491 11.0338 19.9157 11.2329 19.9928C11.4571 20.0795 11.7112 20.1779 12.1933 20.1779C12.6755 20.1779 12.9297 20.0795 13.1539 19.9928C13.3531 19.9157 13.5251 19.8491 13.8925 19.8491C14.2596 19.8491 14.4315 19.9157 14.6305 19.9928C14.8546 20.0795 15.1087 20.1779 15.5907 20.1779C16.0731 20.1779 16.3273 20.0795 16.5516 19.9928C16.7508 19.9157 16.9229 19.8491 17.2904 19.8491C17.4603 19.8491 17.5981 19.7114 17.5981 19.5415C17.5981 19.3716 17.4604 19.2339 17.2905 19.2339Z" fill="#2C2C2C"/>
</g>
<defs>
<clipPath id="clip0_94_1907">
<rect width="21" height="21" fill="white"/>
</clipPath>
</defs>
</svg>
