<svg width="21" height="21" viewBox="0 0 21 21" fill="none" xmlns="http://www.w3.org/2000/svg">
<g clip-path="url(#clip0_87_1175)">
<path d="M18.7441 14.3197L19.966 15.0287V18.5355L16.9463 20.2875L13.9269 18.5355V15.0287L16.9463 13.2765L18.2111 14.0105L18.5205 13.4774L16.9463 12.564L13.6188 14.495L10.5992 12.7428V8.88112L9.16651 8.04975L8.85729 8.58279L9.98298 9.236V12.7428L6.96336 14.495L3.94391 12.7428V9.236L6.96336 7.48386L8.32425 8.27357L8.63347 7.74053L7.27146 6.95018V3.08862L3.63581 0.978882L0 3.08862V4.85598H0.616196V3.44334L3.63581 1.69137L6.65527 3.44334V6.95034L3.63581 8.70232L0.616196 6.95034V5.47218H0V7.30506L3.32771 9.236V12.7428L0 14.6738V18.8904L1.38668 19.6948L1.6959 19.1619L0.616196 18.5355V15.0287L3.63581 13.2765L6.65527 15.0287V18.5355L3.63581 20.2875L2.22894 19.4712L1.91972 20.0042L3.63581 21L6.96336 19.069L8.31175 19.8515L8.62097 19.3185L7.27146 18.5353V15.0287L10.2911 13.2765L13.3107 15.0287V18.5353L10.2911 20.2875L9.15401 19.6277L8.8448 20.1607L10.2911 21L13.6188 19.069L16.9463 21L20.5822 18.8904V14.6738L19.0535 13.7867L18.7441 14.3197Z" fill="#2C2C2C"/>
<path d="M10.0449 5.3817C10.7498 5.3817 11.3582 4.96145 11.6336 4.35839L13.0574 4.69885C13.0353 4.8344 13.0233 4.97314 13.0233 5.11478C13.0233 6.00254 13.4762 6.78632 14.1631 7.24775L13.6738 7.90816C13.4897 7.842 13.2915 7.80563 13.0848 7.80563C12.1221 7.80563 11.339 8.58893 11.339 9.55167C11.339 10.5144 12.1221 11.2976 13.0848 11.2976C14.0476 11.2976 14.8309 10.5144 14.8309 9.55167C14.8309 9.01767 14.5896 8.5391 14.2108 8.21867L14.7207 7.53021C14.9925 7.62859 15.2856 7.68242 15.591 7.68242C17.0066 7.68242 18.1586 6.53062 18.1586 5.11478C18.1586 4.61618 18.0152 4.15075 17.7683 3.75645L18.3382 3.23607C18.6032 3.39837 18.9145 3.49194 19.2473 3.49194C20.21 3.49194 20.9932 2.70879 20.9932 1.74605C20.9932 0.783302 20.21 0 19.2473 0C18.2844 0 17.5012 0.783302 17.5012 1.74605C17.5012 2.15268 17.6414 2.52711 17.8755 2.82415L17.3806 3.27596C16.9177 2.82543 16.2863 2.54713 15.591 2.54713C14.5329 2.54713 13.6224 3.19041 13.2298 4.10653L11.7858 3.76126C11.7888 3.71976 11.7908 3.67795 11.7908 3.63581C11.7908 2.67307 11.0076 1.88976 10.0449 1.88976C9.08213 1.88976 8.29883 2.67307 8.29883 3.63581C8.29883 4.59856 9.08213 5.3817 10.0449 5.3817ZM19.2473 0.616196C19.8702 0.616196 20.377 1.12312 20.377 1.74605C20.377 2.36897 19.8702 2.87574 19.2473 2.87574C18.6242 2.87574 18.1174 2.36897 18.1174 1.74605C18.1174 1.12312 18.6242 0.616196 19.2473 0.616196ZM14.2147 9.55167C14.2147 10.1746 13.7079 10.6814 13.0848 10.6814C12.4619 10.6814 11.9551 10.1746 11.9551 9.55167C11.9551 8.92875 12.4619 8.42182 13.0848 8.42182C13.7079 8.42182 14.2147 8.92875 14.2147 9.55167ZM15.591 3.16333C16.6668 3.16333 17.5422 4.03876 17.5422 5.11478C17.5422 6.19064 16.6668 7.06606 15.591 7.06606C14.5149 7.06606 13.6395 6.19064 13.6395 5.11478C13.6395 4.03876 14.5149 3.16333 15.591 3.16333ZM10.0449 2.50596C10.6678 2.50596 11.1746 3.01289 11.1746 3.63581C11.1746 4.25874 10.6678 4.7655 10.0449 4.7655C9.42179 4.7655 8.91502 4.25874 8.91502 3.63581C8.91502 3.01289 9.42179 2.50596 10.0449 2.50596Z" fill="#2C2C2C"/>
<path d="M12.5412 18.2696L12.2318 17.7366L10.2913 18.8627L9.4168 18.3552L9.10742 18.8882L10.2913 19.5751L12.5412 18.2696Z" fill="#2C2C2C"/>
<path d="M8.04102 18.2702L8.35023 17.7372L8.88328 18.0466L8.5739 18.5794L8.04102 18.2702Z" fill="#2C2C2C"/>
<path d="M19.3494 18.0032V15.3836L18.1666 14.6974L17.8574 15.2304L18.733 15.7385V18.0032H19.3494Z" fill="#2C2C2C"/>
<path d="M16.792 14.6129L17.1012 14.0798L17.6343 14.3892L17.3249 14.9221L16.792 14.6129Z" fill="#2C2C2C"/>
<path d="M1.38477 18.2701L1.69415 17.7372L2.72322 18.3343L2.414 18.8674L1.38477 18.2701Z" fill="#2C2C2C"/>
<path d="M2.94727 19.1767L3.25665 18.6438L3.78969 18.953L3.48031 19.4861L2.94727 19.1767Z" fill="#2C2C2C"/>
<path d="M1.23242 5.80176H1.84878V6.41795H1.23242V5.80176Z" fill="#2C2C2C"/>
<path d="M1.23242 3.97583H1.84878V5.18547H1.23242V3.97583Z" fill="#2C2C2C"/>
<path d="M6.80859 8.81979L7.11797 8.28674L7.65102 8.59596L7.34164 9.12901L6.80859 8.81979Z" fill="#2C2C2C"/>
<path d="M9.36694 12.2104V9.59087L8.18422 8.90466L7.875 9.43771L8.75059 9.94576V12.2104H9.36694Z" fill="#2C2C2C"/>
<path d="M16.3097 5.11479H16.9259C16.9259 4.37843 16.327 3.77954 15.5908 3.77954V4.39574C15.9872 4.39574 16.3097 4.71841 16.3097 5.11479Z" fill="#2C2C2C"/>
</g>
<defs>
<clipPath id="clip0_87_1175">
<rect width="21" height="21" fill="white"/>
</clipPath>
</defs>
</svg>
