<svg width="21" height="21" viewBox="0 0 21 21" fill="none" xmlns="http://www.w3.org/2000/svg">
<path d="M20.2003 5.81634L11.6788 2.1642C10.9297 1.84315 10.0699 1.8434 9.31982 2.16483L0.800211 5.81613C0.306642 6.02761 0 6.49256 0 7.0295C0 7.56614 0.306433 8.03084 0.799708 8.24224L1.80679 8.67388C1.80574 8.68427 1.8052 8.69483 1.8052 8.70547V13.4712C1.41593 13.6027 1.13476 13.9711 1.13476 14.4042C1.13476 14.6553 1.22938 14.8846 1.38462 15.0588C1.21291 15.2271 1.09889 15.4553 1.07534 15.7139L0.834068 18.368C0.817601 18.5494 0.878569 18.7304 1.0013 18.8648C1.12403 18.9992 1.29885 19.0763 1.48087 19.0763H2.75802C2.94004 19.0763 3.11486 18.9992 3.23759 18.8648C3.36037 18.7304 3.42129 18.5493 3.40483 18.368L3.16355 15.7139C3.14004 15.4553 3.02599 15.2271 2.85427 15.0588C3.00952 14.8847 3.10413 14.6553 3.10413 14.4042C3.10413 13.9711 2.82297 13.6027 2.43369 13.4712V8.94255L4.15329 9.67953C4.15224 9.68993 4.1517 9.70044 4.1517 9.71109V12.1105C4.1517 13.112 4.83739 14.0384 6.08252 14.7192C7.2676 15.3672 8.83643 15.7241 10.4999 15.7241C12.1634 15.7241 13.7322 15.3672 14.9173 14.7192C16.1624 14.0384 16.8481 13.112 16.8481 12.1105V9.71109C16.8481 9.70044 16.8476 9.68993 16.8465 9.67958L20.1997 8.24249C20.6933 8.03097 21 7.56597 21 7.02908C21 6.49243 20.6936 6.02774 20.2003 5.81634ZM2.77348 18.441C2.76728 18.4478 2.76053 18.4478 2.75802 18.4478H1.48087C1.47832 18.4478 1.47161 18.4478 1.46541 18.441C1.45917 18.4341 1.4598 18.4275 1.46001 18.425L1.70128 15.7708C1.7211 15.5531 1.90086 15.3889 2.11947 15.3889C2.33803 15.3889 2.51779 15.5531 2.53761 15.7708L2.77889 18.4249C2.77914 18.4275 2.77973 18.4341 2.77348 18.441ZM2.11947 14.7604C1.92307 14.7604 1.7633 14.6006 1.7633 14.4042C1.7633 14.2078 1.92307 14.048 2.11947 14.048C2.31586 14.048 2.47564 14.2078 2.47564 14.4042C2.47564 14.6006 2.31586 14.7604 2.11947 14.7604ZM16.2196 10.7697C16.2196 11.5824 15.5508 12.3758 14.3846 12.9465C14.2287 13.0228 14.1642 13.2111 14.2405 13.367C14.295 13.4784 14.4068 13.5431 14.523 13.5431C14.5694 13.5431 14.6165 13.5328 14.661 13.5111C15.3078 13.1945 15.8261 12.8088 16.1955 12.38C16.0777 13.0427 15.5274 13.6694 14.6159 14.1678C13.5216 14.7661 12.0599 15.0956 10.5 15.0956C8.94006 15.0956 7.47837 14.7661 6.38413 14.1678C5.4759 13.6712 4.92614 13.0472 4.80562 12.3871C5.12329 12.7533 5.55191 13.0882 6.08256 13.3784C7.26765 14.0264 8.83647 14.3833 10.5 14.3833C10.9653 14.3833 11.4295 14.3549 11.8795 14.2991C12.0518 14.2777 12.1741 14.1208 12.1527 13.9486C12.1313 13.7763 11.9746 13.6539 11.8022 13.6754C11.3777 13.728 10.9396 13.7547 10.5 13.7547C8.94001 13.7547 7.47833 13.4252 6.38409 12.8269C5.34985 12.2614 4.78027 11.5308 4.78027 10.7697V9.94825L9.32116 11.8944C9.69552 12.0549 10.0974 12.1351 10.4996 12.1351C10.9022 12.1351 11.3049 12.0546 11.6802 11.8938L16.2196 9.94834V10.7697ZM19.9522 7.66478L11.4325 11.316C10.8399 11.57 10.1605 11.5703 9.56876 11.3167L3.05754 8.52609L9.02357 7.4885C9.29191 7.80608 9.83878 8.01404 10.5 8.01404C11.4436 8.01404 12.1551 7.5907 12.1551 7.02933C12.1551 6.46796 11.4436 6.04462 10.5 6.04462C9.64297 6.04462 8.97748 6.39384 8.86254 6.87848L2.06562 8.06055C2.04568 8.06403 2.02661 8.06943 2.00834 8.07635L1.04735 7.66444C0.785084 7.55215 0.628537 7.31473 0.628537 7.0295C0.628537 6.74397 0.785294 6.5063 1.04781 6.3938L9.56742 2.7425C9.86405 2.61541 10.1823 2.55184 10.5005 2.55184C10.8181 2.55184 11.1356 2.6152 11.4312 2.74187L19.9527 6.394C20.2149 6.50639 20.3715 6.74381 20.3715 7.02904C20.3715 7.31464 20.2147 7.55227 19.9522 7.66478ZM9.47335 7.02937C9.47335 6.93782 9.82633 6.6732 10.5 6.6732C11.1736 6.6732 11.5266 6.93782 11.5266 7.02937C11.5266 7.12093 11.1736 7.38554 10.5 7.38554C9.82633 7.38554 9.47335 7.12089 9.47335 7.02937Z" fill="#2C2C2C"/>
<path d="M12.8463 14.1246C12.8697 14.1246 12.8935 14.1219 12.9173 14.1164C13.1545 14.0616 13.3881 13.998 13.6118 13.9272C13.7772 13.8749 13.869 13.6983 13.8166 13.5329C13.7643 13.3674 13.5877 13.2756 13.4222 13.328C13.2144 13.3937 12.9969 13.4529 12.7758 13.504C12.6067 13.543 12.5013 13.7118 12.5404 13.8809C12.574 14.0263 12.7033 14.1246 12.8463 14.1246Z" fill="#2C2C2C"/>
</svg>
