<svg width="21" height="21" viewBox="0 0 21 21" fill="none" xmlns="http://www.w3.org/2000/svg">
<path d="M7.0752 17.9238C6.22707 17.9238 5.53711 18.6138 5.53711 19.4619C5.53711 20.31 6.22707 21 7.0752 21C7.92332 21 8.61328 20.31 8.61328 19.4619C8.61328 18.6138 7.92332 17.9238 7.0752 17.9238ZM7.0752 20.3848C6.56636 20.3848 6.15234 19.9708 6.15234 19.4619C6.15234 18.9531 6.56636 18.5391 7.0752 18.5391C7.58404 18.5391 7.99805 18.9531 7.99805 19.4619C7.99805 19.9708 7.58404 20.3848 7.0752 20.3848Z" fill="#2C2C2C"/>
<path d="M7.0752 19.7695C7.24509 19.7695 7.38281 19.6318 7.38281 19.4619C7.38281 19.292 7.24509 19.1543 7.0752 19.1543C6.9053 19.1543 6.76758 19.292 6.76758 19.4619C6.76758 19.6318 6.9053 19.7695 7.0752 19.7695Z" fill="#2C2C2C"/>
<path d="M17.6162 19.7695C17.7861 19.7695 17.9238 19.6318 17.9238 19.4619C17.9238 19.292 17.7861 19.1543 17.6162 19.1543C17.4463 19.1543 17.3086 19.292 17.3086 19.4619C17.3086 19.6318 17.4463 19.7695 17.6162 19.7695Z" fill="#2C2C2C"/>
<path d="M17.6162 17.9238C16.7681 17.9238 16.0781 18.6138 16.0781 19.4619C16.0781 20.31 16.7681 21 17.6162 21C18.4643 21 19.1543 20.31 19.1543 19.4619C19.1543 18.6138 18.4643 17.9238 17.6162 17.9238ZM17.6162 20.3848C17.1074 20.3848 16.6934 19.9708 16.6934 19.4619C16.6934 18.9531 17.1074 18.5391 17.6162 18.5391C18.1251 18.5391 18.5391 18.9531 18.5391 19.4619C18.5391 19.9708 18.1251 20.3848 17.6162 20.3848Z" fill="#2C2C2C"/>
<path d="M5.07962 14.8868L7.31875 13.6172H12.3457C13.0885 13.6172 13.71 13.0879 13.8529 12.3867H17.0566C18.0411 12.3867 18.8989 11.7206 19.1428 10.7669L20.9904 3.54207C21.0139 3.44999 20.9936 3.35225 20.9353 3.27719C20.877 3.20213 20.7874 3.1582 20.6924 3.1582H5.58887L5.43199 2.54481C5.04931 1.04647 3.70109 0 2.15332 0H0.922852C0.414012 0 0 0.414012 0 0.922852C0 1.43169 0.414012 1.8457 0.922852 1.8457H2.15332C2.85703 1.8457 3.46988 2.32107 3.64375 3.00181L6.00641 12.2396L4.16973 13.2809C3.49523 13.6628 3.07617 14.381 3.07617 15.1553C3.07617 16.3426 4.04217 17.3086 5.22949 17.3086H18.8467C19.3555 17.3086 19.7695 16.8946 19.7695 16.3857C19.7695 15.8769 19.3555 15.4629 18.8467 15.4629H5.22949C5.05985 15.4629 4.92188 15.3249 4.92188 15.1553C4.92188 15.0447 4.98225 14.9419 5.07962 14.8868ZM16.4818 8.90039H14.5915L14.7068 6.64453H16.8279L16.4818 8.90039ZM17.4503 6.64453H19.562L18.9851 8.90039H17.1043L17.4503 6.64453ZM16.3874 9.51562L16.0413 11.7715H14.4447L14.56 9.51562H16.3874ZM13.9754 8.90039H12.0818L11.9664 6.64453H14.0908L13.9754 8.90039ZM14.7383 6.0293L14.8536 3.77344H17.2684L16.9223 6.0293H14.7383ZM14.1222 6.0293H11.9349L11.8195 3.77344H14.2375L14.1222 6.0293ZM11.3189 6.0293H10.1013C9.93136 6.0293 9.79367 6.16699 9.79367 6.33691C9.79367 6.50684 9.93136 6.64453 10.1013 6.64453H11.3504L11.4658 8.90039H9.57547L8.78866 3.77344H11.2035L11.3189 6.0293ZM8.95305 8.90039H7.05748L6.48051 6.64453H8.60684L8.95305 8.90039ZM9.04747 9.51562L9.39369 11.7715H7.79182L7.21485 9.51562H9.04747ZM10.0161 11.7715L9.66988 9.51562H11.4973L11.6127 11.7715H10.0161ZM12.2288 11.7715L12.1133 9.51562H13.944L13.8286 11.7715H12.2288ZM18.5468 10.6145C18.3726 11.2957 17.7598 11.7715 17.0566 11.7715H16.6637L17.0098 9.51562H18.8277L18.5468 10.6145ZM19.7193 6.0293H17.5448L17.8909 3.77344H20.2962L19.7193 6.0293ZM8.16625 3.77344L8.51247 6.0293H6.32322L5.74625 3.77344H8.16625ZM2.15332 1.23047H0.922852C0.753211 1.23047 0.615234 1.09249 0.615234 0.922852C0.615234 0.753211 0.753211 0.615234 0.922852 0.615234H2.15332C2.79993 0.615234 3.40364 0.838811 3.88164 1.22038L3.44306 1.659C3.08036 1.38801 2.63197 1.23047 2.15332 1.23047ZM5.22949 16.0781H18.8467C19.0163 16.0781 19.1543 16.2161 19.1543 16.3857C19.1543 16.5554 19.0163 16.6934 18.8467 16.6934H5.22949C4.38137 16.6934 3.69141 16.0034 3.69141 15.1553C3.69141 14.6023 3.99086 14.0892 4.47304 13.8162L6.51443 12.6587C6.63518 12.5902 6.6951 12.4494 6.66069 12.3149L4.23979 2.84948C4.16829 2.56951 4.04348 2.31463 3.87831 2.09389L4.31702 1.65519C4.55643 1.95468 4.73632 2.30709 4.83591 2.69715L7.25497 12.1553C7.28979 12.2915 7.41243 12.3868 7.55299 12.3868H13.2158C13.0889 12.7448 12.7468 13.002 12.3457 13.002H7.23762C7.18442 13.002 7.13217 13.0158 7.0859 13.042L4.77635 14.3515C4.48666 14.5154 4.30664 14.8235 4.30664 15.1553C4.30664 15.6641 4.72065 16.0781 5.22949 16.0781Z" fill="#2C2C2C"/>
</svg>
