<svg width="21" height="21" viewBox="0 0 21 21" fill="none" xmlns="http://www.w3.org/2000/svg">
<g clip-path="url(#clip0_87_1337)">
<path d="M16.6523 4.24175C16.6523 4.86212 17.157 5.3668 17.7774 5.3668C18.3978 5.3668 18.9026 4.86212 18.9026 4.24175C18.9026 3.62139 18.3978 3.1167 17.7774 3.1167C17.157 3.1167 16.6523 3.62139 16.6523 4.24175ZM18.2872 4.24175C18.2872 4.52293 18.0586 4.75157 17.7774 4.75157C17.4962 4.75157 17.2674 4.52293 17.2674 4.24175C17.2674 3.96057 17.4962 3.73194 17.7774 3.73194C18.0586 3.73194 18.2872 3.96057 18.2872 4.24175Z" fill="#2C2C2C"/>
<path d="M2.16119 7.61061L2.01972 7.6449C1.85453 7.68479 1.75296 7.85094 1.79285 8.01597C1.82682 8.15696 1.95275 8.25165 2.09149 8.25165C2.11553 8.25165 2.13972 8.24877 2.16391 8.243L2.30554 8.20871C2.47073 8.16898 2.5723 8.00283 2.53241 7.83764C2.49252 7.67245 2.32637 7.57103 2.16119 7.61061Z" fill="#2C2C2C"/>
<path d="M20.0491 4.98873C20.2191 4.98873 20.3567 4.8511 20.3567 4.68111V1.94652C20.3567 1.84895 20.3104 1.7573 20.2321 1.69915L17.9599 0.0194264C17.8511 -0.061163 17.7027 -0.061163 17.5941 0.0194264L15.3219 1.69915C15.2434 1.7573 15.1971 1.84895 15.1971 1.94652V2.65837L5.08367 5.57272C4.92041 5.61967 4.8262 5.79014 4.8733 5.9534C4.92025 6.11666 5.09088 6.21071 5.25398 6.16392L15.1971 3.2986V5.01661C11.4297 6.10224 4.15697 8.19788 2.326 8.72564C1.88877 8.85157 1.43039 8.59827 1.3043 8.16103C1.24342 7.94907 1.26841 7.7262 1.37511 7.53314C1.48166 7.34024 1.6571 7.20037 1.8689 7.13933L4.21849 6.46225C4.38175 6.41514 4.47596 6.24467 4.42886 6.08141C4.38191 5.91815 4.21128 5.8241 4.04818 5.87105L1.69859 6.54812C1.32881 6.65467 1.0228 6.89884 0.836624 7.23562C0.650451 7.57239 0.606712 7.96156 0.713256 8.33134C0.894943 8.9618 1.47237 9.37324 2.09818 9.37308C2.09994 9.37308 2.10186 9.37292 2.10362 9.37292V20.6514C2.10362 20.8213 2.24141 20.959 2.41124 20.959C2.58107 20.959 2.71886 20.8213 2.71886 20.6514V9.25259L8.57785 7.56422L7.01861 20.3438H5.55903C5.3892 20.3438 5.25141 20.4814 5.25141 20.6514C5.25141 20.8214 5.3892 20.959 5.55903 20.959H16.9965C17.1665 20.959 17.3041 20.8214 17.3041 20.6514C17.3041 20.4814 17.1665 20.3438 16.9965 20.3438H15.5369L13.7942 6.06122L15.1971 5.65684V6.53691C15.1971 6.63448 15.2434 6.72629 15.3219 6.78429L17.4693 8.37204V10.5191H16.9595C16.7895 10.5191 16.6518 10.6569 16.6518 10.8267V13.8377C16.6518 14.0075 16.7895 14.1453 16.9595 14.1453H18.5943C18.7643 14.1453 18.9019 14.0075 18.9019 13.8377V10.8267C18.9019 10.6569 18.7643 10.5191 18.5943 10.5191H18.0845V8.37204L20.2321 6.78429C20.3104 6.72629 20.3567 6.63448 20.3567 6.53691V5.7166C20.3567 5.54677 20.2191 5.40898 20.0491 5.40898C19.8791 5.40898 19.7415 5.54677 19.7415 5.7166V6.38182L17.7769 7.83435L15.8123 6.38182V2.10177L17.7769 0.649241L19.7415 2.10177V4.68111C19.7415 4.8511 19.8793 4.98873 20.0491 4.98873ZM9.24371 10.3957L11.2777 8.34737L13.3118 10.3957H9.24371ZM13.1809 11.011L11.2777 12.5495L9.37461 11.011H13.1809ZM8.74287 11.2915L10.7884 12.9451L8.29522 14.9607L8.74287 11.2915ZM8.76771 15.3697L11.2777 13.3405L13.7878 15.3697H8.76771ZM13.6523 15.9849L11.2777 17.5882L8.90309 15.9849H13.6523ZM8.14222 16.2136L10.728 17.9594L7.67791 20.0189L8.14222 16.2136ZM11.2777 18.3307L14.2592 20.3438H8.29619L11.2777 18.3307ZM11.8274 17.9594L14.4131 16.2137L14.8774 20.0189L11.8274 17.9594ZM11.767 12.9451L13.8126 11.2915L14.2603 14.9607L11.767 12.9451ZM11.7112 7.91077L13.2152 6.39608L13.6367 9.84988L11.7112 7.91077ZM12.2345 6.51063L11.2777 7.47418L10.7466 6.93938L12.2345 6.51063ZM10.0725 7.13356L10.8443 7.91077L8.91879 9.84988L9.22032 7.37917L10.0725 7.13356ZM18.2867 13.5301H17.2671V11.1343H18.2867V13.5301Z" fill="#2C2C2C"/>
</g>
<defs>
<clipPath id="clip0_87_1337">
<rect width="21" height="21" fill="white"/>
</clipPath>
</defs>
</svg>
