<svg width="21" height="21" viewBox="0 0 21 21" fill="none" xmlns="http://www.w3.org/2000/svg">
<path d="M7.0918 11.0742H13.6297C13.695 11.0742 13.7576 11.0483 13.8037 11.0021C13.8499 10.956 13.8758 10.8934 13.8758 10.8281C13.8758 10.7629 13.8499 10.7003 13.8037 10.6541C13.7576 10.608 13.695 10.582 13.6297 10.582H7.0918C7.02653 10.582 6.96393 10.608 6.91778 10.6541C6.87163 10.7003 6.8457 10.7629 6.8457 10.8281C6.8457 10.8934 6.87163 10.956 6.91778 11.0021C6.96393 11.0483 7.02653 11.0742 7.0918 11.0742Z" fill="#2C2C2C"/>
<path d="M7.0918 9.55664H13.6297C13.695 9.55664 13.7576 9.53071 13.8037 9.48456C13.8499 9.43841 13.8758 9.37582 13.8758 9.31055C13.8758 9.24528 13.8499 9.18268 13.8037 9.13653C13.7576 9.09038 13.695 9.06445 13.6297 9.06445H7.0918C7.02653 9.06445 6.96393 9.09038 6.91778 9.13653C6.87163 9.18268 6.8457 9.24528 6.8457 9.31055C6.8457 9.37582 6.87163 9.43841 6.91778 9.48456C6.96393 9.53071 7.02653 9.55664 7.0918 9.55664Z" fill="#2C2C2C"/>
<path d="M15.1669 11.3613H17.4112C17.5809 11.3613 17.7489 11.3279 17.9056 11.263C18.0624 11.1981 18.2048 11.1029 18.3248 10.9829C18.4448 10.8629 18.5399 10.7205 18.6049 10.5638C18.6698 10.407 18.7032 10.239 18.7032 10.0693C18.7032 9.89967 18.6698 9.73166 18.6049 9.57491C18.5399 9.41816 18.4448 9.27573 18.3248 9.15576C18.2048 9.03579 18.0624 8.94062 17.9056 8.87569C17.7489 8.81076 17.5809 8.77734 17.4112 8.77734H15.5727C15.5152 8.77812 15.4597 8.79877 15.4157 8.83578C15.3717 8.87279 15.3418 8.92389 15.3311 8.98041L14.9254 11.0818C14.9185 11.1164 14.9196 11.1522 14.9285 11.1863C14.9375 11.2204 14.9541 11.252 14.9772 11.2787C15.0006 11.3058 15.0299 11.3272 15.0627 11.3415C15.0955 11.3558 15.1311 11.3626 15.1669 11.3613ZM15.7758 9.26953H17.4112C17.6233 9.26953 17.8268 9.3538 17.9768 9.50379C18.1267 9.65378 18.211 9.85722 18.211 10.0693C18.211 10.2815 18.1267 10.4849 17.9768 10.6349C17.8268 10.7849 17.6233 10.8691 17.4112 10.8691H15.4651L15.7758 9.26953Z" fill="#2C2C2C"/>
<path d="M5.3896 8.98041C5.37893 8.92389 5.34904 8.87279 5.30501 8.83578C5.26097 8.79877 5.20549 8.77812 5.14797 8.77734H3.30957C3.1399 8.77734 2.9719 8.81076 2.81515 8.87569C2.65839 8.94062 2.51597 9.03579 2.39599 9.15576C2.27602 9.27573 2.18085 9.41816 2.11593 9.57491C2.051 9.73166 2.01758 9.89967 2.01758 10.0693C2.01758 10.239 2.051 10.407 2.11593 10.5638C2.18085 10.7205 2.27602 10.8629 2.39599 10.9829C2.51597 11.1029 2.65839 11.1981 2.81515 11.263C2.9719 11.3279 3.1399 11.3613 3.30957 11.3613H5.55395C5.58971 11.3627 5.62533 11.3561 5.65818 11.3419C5.69103 11.3277 5.72028 11.3063 5.74377 11.2793C5.76676 11.2528 5.78339 11.2214 5.79237 11.1874C5.80135 11.1535 5.80244 11.118 5.79557 11.0835L5.3896 8.98041ZM3.30957 10.8691C3.09745 10.8691 2.89402 10.7849 2.74402 10.6349C2.59403 10.4849 2.50977 10.2815 2.50977 10.0693C2.50977 9.85722 2.59403 9.65378 2.74402 9.50379C2.89402 9.3538 3.09745 9.26953 3.30957 9.26953H4.94503L5.25572 10.8691H3.30957Z" fill="#2C2C2C"/>
<path d="M7.0918 10.3359H13.6297C13.695 10.3359 13.7576 10.31 13.8037 10.2639C13.8499 10.2177 13.8758 10.1551 13.8758 10.0898C13.8758 10.0246 13.8499 9.96198 13.8037 9.91583C13.7576 9.86968 13.695 9.84375 13.6297 9.84375H7.0918C7.02653 9.84375 6.96393 9.86968 6.91778 9.91583C6.87163 9.96198 6.8457 10.0246 6.8457 10.0898C6.8457 10.1551 6.87163 10.2177 6.91778 10.2639C6.96393 10.31 7.02653 10.3359 7.0918 10.3359Z" fill="#2C2C2C"/>
<path d="M20.1797 12.6738H20.1387V9.39943C20.1394 9.02129 19.9968 8.65693 19.7395 8.3798C19.4823 8.10266 19.1295 7.93335 18.7523 7.90601L17.5373 4.55544C17.4274 4.2541 17.2275 3.99384 16.9647 3.80993C16.7019 3.62603 16.3889 3.52737 16.0682 3.52734H4.93176C4.61065 3.52733 4.29727 3.62592 4.03402 3.80981C3.77077 3.99369 3.57033 4.25398 3.45983 4.55548L2.24766 7.90781C1.8707 7.93481 1.518 8.10376 1.26072 8.38058C1.00343 8.65741 0.860705 9.0215 0.861328 9.39943V12.6738H0.820312C0.767251 12.6723 0.714411 12.6813 0.664897 12.7004C0.615382 12.7196 0.570193 12.7484 0.531982 12.7853C0.493772 12.8221 0.463311 12.8662 0.44239 12.915C0.421469 12.9638 0.41051 13.0163 0.410156 13.0694V14.5331C0.410491 14.5863 0.42143 14.6388 0.442331 14.6877C0.463233 14.7365 0.493676 14.7807 0.531877 14.8176C0.570078 14.8546 0.615268 14.8835 0.664797 14.9027C0.714326 14.922 0.767198 14.9311 0.820312 14.9297H1.02039L1.03236 16.6236C1.03434 16.8504 1.12615 17.0671 1.28768 17.2263C1.44921 17.3854 1.66726 17.474 1.89402 17.4727H1.90054L3.56885 17.4649C3.68195 17.4645 3.79384 17.4417 3.89811 17.3979C4.00239 17.3541 4.09698 17.2901 4.17647 17.2097C4.25597 17.1292 4.3188 17.0339 4.36136 16.9291C4.40391 16.8243 4.42536 16.7121 4.42448 16.599L4.41271 14.9297H16.5769L16.5889 16.6199C16.5909 16.847 16.6827 17.0641 16.8441 17.2238C17.0055 17.3835 17.2235 17.473 17.4506 17.4727H17.4571L19.1254 17.4649C19.2385 17.4645 19.3504 17.4417 19.4546 17.3979C19.5589 17.3541 19.6535 17.2901 19.733 17.2097C19.8125 17.1292 19.8753 17.0339 19.9179 16.9291C19.9604 16.8243 19.9819 16.7121 19.981 16.599L19.9692 14.9297H20.1797C20.2328 14.9311 20.2857 14.922 20.3352 14.9027C20.3847 14.8835 20.4299 14.8546 20.4681 14.8176C20.5063 14.7807 20.5368 14.7365 20.5577 14.6877C20.5786 14.6388 20.5895 14.5863 20.5898 14.5331V13.0694C20.5895 13.0163 20.5785 12.9638 20.5576 12.915C20.5367 12.8662 20.5062 12.8221 20.468 12.7853C20.4298 12.7484 20.3846 12.7196 20.3351 12.7004C20.2856 12.6813 20.2327 12.6723 20.1797 12.6738ZM3.92249 4.73054C3.99794 4.52311 4.13511 4.34378 4.31555 4.21666C4.496 4.08954 4.71104 4.02075 4.93176 4.01953H16.0682C16.2889 4.02075 16.5039 4.08955 16.6844 4.21666C16.8648 4.34376 17.002 4.52309 17.0774 4.7305L18.2328 7.91602H2.7672L3.92249 4.73054ZM1.35352 9.39943C1.35268 9.26878 1.37785 9.13927 1.42755 9.01845C1.47725 8.89762 1.5505 8.78789 1.64301 8.69564C1.73553 8.60339 1.84548 8.53047 1.96645 8.48112C2.08743 8.43178 2.21701 8.40699 2.34765 8.4082H18.6523C18.783 8.40699 18.9126 8.43178 19.0335 8.48112C19.1545 8.53047 19.2645 8.60339 19.357 8.69564C19.4495 8.78789 19.5227 8.89762 19.5724 9.01845C19.6221 9.13927 19.6473 9.26878 19.6465 9.39943V12.6738H14.7697L13.9771 11.6261C13.9543 11.5954 13.9249 11.5704 13.8909 11.5529C13.8569 11.5355 13.8194 11.5261 13.7812 11.5254H6.8962C6.85799 11.526 6.82044 11.5354 6.78645 11.5529C6.75245 11.5704 6.72293 11.5954 6.70015 11.6261L5.90756 12.6738H1.35352V9.39943ZM14.1519 12.6738H6.52559L7.01851 12.0176H13.6589L14.1519 12.6738ZM3.8259 16.8659C3.79175 16.9001 3.75112 16.9272 3.7064 16.9455C3.66168 16.9639 3.61375 16.9731 3.56541 16.9728L1.8971 16.9805H1.89431C1.84619 16.9812 1.7984 16.9724 1.75371 16.9546C1.70901 16.9368 1.66829 16.9103 1.6339 16.8766C1.59952 16.8429 1.57215 16.8028 1.55338 16.7585C1.53461 16.7142 1.52481 16.6666 1.52455 16.6185L1.51262 14.9297H3.92052L3.93229 16.6036C3.93278 16.6522 3.92364 16.7004 3.90537 16.7454C3.88711 16.7904 3.8601 16.8314 3.8259 16.8659ZM19.3824 16.8659C19.3483 16.9001 19.3077 16.9272 19.2629 16.9455C19.2182 16.9639 19.1703 16.9731 19.1219 16.9728L17.4536 16.9805H17.4509C17.3537 16.9811 17.2601 16.9432 17.1908 16.875C17.1215 16.8069 17.082 16.714 17.081 16.6168L17.0691 14.9297H19.477L19.4888 16.6036C19.4893 16.6522 19.4802 16.7004 19.4619 16.7454C19.4436 16.7904 19.4166 16.8314 19.3824 16.8659ZM20.0977 14.4375H0.902344V13.166H20.0977V14.4375Z" fill="#2C2C2C"/>
<path d="M9.87769 4.59375H5.7041C5.63883 4.59375 5.57624 4.61968 5.53009 4.66583C5.48394 4.71198 5.45801 4.77458 5.45801 4.83984C5.45801 4.90511 5.48394 4.96771 5.53009 5.01386C5.57624 5.06001 5.63883 5.08594 5.7041 5.08594H9.87769C9.94296 5.08594 10.0056 5.06001 10.0517 5.01386C10.0979 4.96771 10.1238 4.90511 10.1238 4.83984C10.1238 4.77458 10.0979 4.71198 10.0517 4.66583C10.0056 4.61968 9.94296 4.59375 9.87769 4.59375Z" fill="#2C2C2C"/>
<path d="M4.93767 4.59375H4.7373C4.67204 4.59375 4.60944 4.61968 4.56329 4.66583C4.51714 4.71198 4.49121 4.77458 4.49121 4.83984C4.49121 4.90511 4.51714 4.96771 4.56329 5.01386C4.60944 5.06001 4.67204 5.08594 4.7373 5.08594H4.93767C5.00293 5.08594 5.06553 5.06001 5.11168 5.01386C5.15783 4.96771 5.18376 4.90511 5.18376 4.83984C5.18376 4.77458 5.15783 4.71198 5.11168 4.66583C5.06553 4.61968 5.00293 4.59375 4.93767 4.59375Z" fill="#2C2C2C"/>
</svg>
