<svg width="21" height="21" viewBox="0 0 21 21" fill="none" xmlns="http://www.w3.org/2000/svg">
<g clip-path="url(#clip0_87_1200)">
<path d="M20.0571 17.3753H19.4628V12.7451C19.4628 12.5749 19.3248 12.4369 19.1545 12.4369C18.9843 12.4369 18.8463 12.5749 18.8463 12.7451V17.3753H8.09886V12.8231C8.09886 12.6529 7.96089 12.5149 7.79063 12.5149H3.74054C3.57029 12.5149 3.43231 12.6529 3.43231 12.8231V17.3753H1.97179V11.3164L18.8463 6.97146V11.5122C18.8463 11.6824 18.9843 11.8204 19.1545 11.8204C19.3248 11.8204 19.4628 11.6824 19.4628 11.5122V6.57381C19.4628 6.47853 19.4187 6.38858 19.3434 6.33022C19.268 6.27181 19.1699 6.25167 19.0777 6.27534L17.5704 6.66343L17.2838 3.4862C17.2838 3.48612 17.2838 3.48599 17.2838 3.48591L17.1515 2.01932C17.1372 1.86046 17.004 1.73877 16.8445 1.73877H14.8096C14.6501 1.73877 14.5169 1.86046 14.5026 2.01932L14.3704 3.48599V3.48603L14.0009 7.58255L12.2493 8.03356L11.941 4.61556C11.941 4.61548 11.941 4.61544 11.941 4.6154L11.8088 3.14876C11.7945 2.98991 11.6613 2.86822 11.5018 2.86822H9.46682C9.30735 2.86822 9.17417 2.98991 9.15986 3.14876L9.02758 4.61536C9.02758 4.61544 9.02758 4.61552 9.02754 4.61564L8.63535 8.96416L6.9282 9.40372L6.59818 5.74505C6.59818 5.74497 6.59818 5.74493 6.59818 5.74484L6.46591 4.27825C6.45159 4.1194 6.31842 3.9977 6.15895 3.9977H4.12404C3.96457 3.9977 3.83139 4.1194 3.81708 4.27825L3.53366 7.42029C3.51836 7.58985 3.64342 7.73968 3.81294 7.75498C3.98258 7.77032 4.13232 7.64522 4.14762 7.4757L4.27309 6.0847H6.00998L6.32338 9.55954L3.9035 10.1826L4.0368 8.7049C4.0521 8.53534 3.92704 8.38551 3.75752 8.37021C3.58792 8.35512 3.43813 8.48001 3.42284 8.64949L3.26985 10.3457L1.58689 10.7791C1.45072 10.8141 1.35553 10.9369 1.35553 11.0775V17.3753H0.942908C0.422994 17.3753 0 17.7983 0 18.3182C0 18.8381 0.422994 19.2611 0.942908 19.2611H9.9976C10.1679 19.2611 10.3058 19.1231 10.3058 18.9529C10.3058 18.7826 10.1679 18.6446 9.9976 18.6446H0.942908C0.762891 18.6446 0.616424 18.4982 0.616424 18.3182C0.616424 18.1382 0.76285 17.9917 0.942908 17.9917H20.0571C20.2348 17.9917 20.3836 18.1405 20.3836 18.3182C20.3836 18.4959 20.2348 18.6446 20.0571 18.6446H11.2305C11.0602 18.6446 10.9223 18.7826 10.9223 18.9529C10.9223 19.1231 11.0602 19.2611 11.2305 19.2611H20.0571C20.577 19.2611 21 18.8381 21 18.3182C21 17.7983 20.577 17.3753 20.0571 17.3753V17.3753ZM4.32854 5.46815L4.40557 4.61409H5.87721L5.95424 5.46815H4.32854ZM16.5629 2.35523L16.6399 3.2093H15.0142L15.0912 2.35523H16.5629ZM14.9586 3.82573H16.6955L16.9655 6.81917L14.6345 7.41935L14.9586 3.82573ZM11.2201 3.48464L11.2971 4.33871H9.67136L9.74839 3.48464H11.2201ZM9.61574 4.95517H11.3527L11.6444 8.18929L9.26892 8.80096L9.61574 4.95517ZM4.04873 13.1313H7.4824V17.3753H4.04873V13.1313Z" fill="#2C2C2C"/>
<path d="M11.6707 11.0997C11.6707 10.9295 11.5327 10.7915 11.3624 10.7915H10.1315C9.96122 10.7915 9.82324 10.9295 9.82324 11.0997V12.6369C9.82324 12.8071 9.96122 12.9452 10.1315 12.9452H11.3624C11.5327 12.9452 11.6707 12.8071 11.6707 12.6369V11.0997ZM11.0542 12.3287H10.4397V11.408H11.0542V12.3287Z" fill="#2C2C2C"/>
<path d="M11.3624 13.9379H10.1315C9.96122 13.9379 9.82324 14.0759 9.82324 14.2461V15.7833C9.82324 15.9535 9.96122 16.0915 10.1315 16.0915H11.3624C11.5327 16.0915 11.6707 15.9535 11.6707 15.7833V14.2461C11.6707 14.0759 11.5327 13.9379 11.3624 13.9379ZM11.0542 15.4751H10.4397V14.5543H11.0542V15.4751Z" fill="#2C2C2C"/>
<path d="M14.7908 11.0997C14.7908 10.9295 14.6528 10.7915 14.4826 10.7915H13.2516C13.0813 10.7915 12.9434 10.9295 12.9434 11.0997V12.6369C12.9434 12.8071 13.0813 12.9452 13.2516 12.9452H14.4826C14.6528 12.9452 14.7908 12.8071 14.7908 12.6369V11.0997ZM14.1744 12.3287H13.5599V11.408H14.1744V12.3287Z" fill="#2C2C2C"/>
<path d="M14.4826 13.9379H13.2516C13.0813 13.9379 12.9434 14.0759 12.9434 14.2461V15.7833C12.9434 15.9535 13.0813 16.0915 13.2516 16.0915H14.4826C14.6529 16.0915 14.7908 15.9535 14.7908 15.7833V14.2461C14.7908 14.0759 14.6528 13.9379 14.4826 13.9379ZM14.1744 15.4751H13.5598V14.5543H14.1744V15.4751Z" fill="#2C2C2C"/>
<path d="M17.9119 11.0997C17.9119 10.9295 17.7739 10.7915 17.6036 10.7915H16.3727C16.2024 10.7915 16.0645 10.9295 16.0645 11.0997V12.6369C16.0645 12.8071 16.2024 12.9452 16.3727 12.9452H17.6036C17.7739 12.9452 17.9119 12.8071 17.9119 12.6369V11.0997ZM17.2954 12.3287H16.6809V11.408H17.2954V12.3287Z" fill="#2C2C2C"/>
<path d="M17.6036 13.9379H16.3727C16.2024 13.9379 16.0645 14.0759 16.0645 14.2461V15.7833C16.0645 15.9535 16.2024 16.0915 16.3727 16.0915H17.6036C17.7739 16.0915 17.9119 15.9535 17.9119 15.7833V14.2461C17.9119 14.0759 17.7739 13.9379 17.6036 13.9379ZM17.2954 15.4751H16.6809V14.5543H17.2954V15.4751Z" fill="#2C2C2C"/>
</g>
<defs>
<clipPath id="clip0_87_1200">
<rect width="21" height="21" fill="white"/>
</clipPath>
</defs>
</svg>
