<svg width="21" height="21" viewBox="0 0 21 21" fill="none" xmlns="http://www.w3.org/2000/svg">
<path d="M6.89062 17.3906H7.54688V18.0469H6.89062V17.3906Z" fill="#2C2C2C"/>
<path d="M6.89062 18.7031H7.54688V19.3594H6.89062V18.7031Z" fill="#2C2C2C"/>
<path d="M14.4516 10.8281C14.7489 10.8281 15.0288 10.6972 15.2188 10.4688L16.5601 8.85938H19.0312C19.9359 8.85938 20.6719 8.12339 20.6719 7.21875V3.9375C20.6719 3.03286 19.9359 2.29688 19.0312 2.29688H17.3906C17.3906 1.21111 16.5076 0.328125 15.4219 0.328125C14.3361 0.328125 13.4531 1.21111 13.4531 2.29688H11.8125C10.9079 2.29688 10.1719 3.03286 10.1719 3.9375V5.74908C9.54745 5.23261 8.74683 4.92188 7.875 4.92188H7.54688C6.45881 4.92188 5.41734 5.42227 4.73616 6.26686C3.69764 6.51755 2.95312 7.45533 2.95312 8.53125C2.95312 9.66394 3.43875 10.7258 4.28334 11.4742C4.39327 12.4947 5.02556 13.3583 5.90625 13.7977V14.5057L3.61659 15.0445C1.68033 15.5 0.328125 17.2075 0.328125 19.1966V20.6719H14.1094V19.1966C14.1094 18.5538 13.9663 17.9415 13.71 17.3906H14.9399L16.2812 18.9998C16.4712 19.2285 16.7511 19.3594 17.0484 19.3594C17.599 19.3594 18.0469 18.9115 18.0469 18.3609V17.3906H19.0312C19.9359 17.3906 20.6719 16.6546 20.6719 15.75V13.125C20.6719 12.2204 19.9359 11.4844 19.0312 11.4844H12.4688C11.5641 11.4844 10.8281 12.2204 10.8281 13.125V15.0465C10.8255 15.0458 10.8232 15.0449 10.8209 15.0445L8.53125 14.5057V13.7977C9.41194 13.3583 10.0442 12.4943 10.1542 11.4742C10.9164 10.7986 11.3827 9.8677 11.4663 8.85938H13.4531V9.82964C13.4531 10.3802 13.901 10.8281 14.4516 10.8281ZM15.4219 0.984375C16.1457 0.984375 16.7344 1.57303 16.7344 2.29688C16.7344 3.02072 16.1457 3.60938 15.4219 3.60938C14.698 3.60938 14.1094 3.02072 14.1094 2.29688C14.1094 1.57303 14.698 0.984375 15.4219 0.984375ZM6.10083 15.1341L6.80859 16.0781L6.04439 17.097L5.38355 15.3028L6.10083 15.1341ZM7.21875 16.6248L8.12306 17.8303L7.31817 20.0156H7.11966L6.31477 17.8303L7.21875 16.6248ZM0.984375 19.1966C0.984375 17.5133 2.12855 16.0686 3.7672 15.6831L4.73944 15.4544L6.42009 20.0156H3.60938V18.0469H2.95312V20.0156H0.984375V19.1966ZM11.4844 13.125C11.4844 12.5823 11.926 12.1406 12.4688 12.1406H19.0312C19.574 12.1406 20.0156 12.5823 20.0156 13.125V15.75C20.0156 16.2927 19.574 16.7344 19.0312 16.7344H17.3906V18.3609C17.3906 18.5496 17.2371 18.7031 17.0484 18.7031C16.9463 18.7031 16.8505 18.6582 16.7856 18.5801L15.2476 16.7344H13.3284C12.8727 16.0886 12.2397 15.5722 11.4844 15.2595V13.125ZM13.4531 19.1966V20.0156H11.4844V18.0469H10.8281V20.0156H8.01741L9.69773 15.4544L10.67 15.6831C12.309 16.0689 13.4531 17.5137 13.4531 19.1966ZM9.05428 15.3031L8.39344 17.0973L7.62891 16.0781L8.33667 15.1341L9.05428 15.3031ZM7.875 14.6564L7.21875 15.5315L6.5625 14.6564V14.0333C6.77381 14.0815 6.993 14.1094 7.21875 14.1094C7.4445 14.1094 7.66369 14.0815 7.875 14.0333V14.6564ZM9.51562 11.1562C9.51562 12.4228 8.48498 13.4531 7.21875 13.4531C5.95252 13.4531 4.92188 12.4228 4.92188 11.1562V9.61505C4.92188 9.37912 5.1135 9.1875 5.34942 9.1875C5.43408 9.1875 5.51611 9.21244 5.58666 9.25936L6.46308 9.84375H8.53125C9.07397 9.84375 9.51562 10.2854 9.51562 10.8281V11.1562ZM10.1427 10.5381C10.0045 9.77189 9.33647 9.1875 8.53125 9.1875H6.66192L5.95055 8.71336C5.77205 8.59425 5.56402 8.53125 5.34942 8.53125C4.75158 8.53125 4.26562 9.0172 4.26562 9.61505V10.4957C3.84431 9.93398 3.60938 9.24952 3.60938 8.53125C3.60938 7.73653 4.17506 7.04648 4.95469 6.89062L5.10956 6.85945L5.18438 6.75938C5.73923 6.01978 6.62255 5.57812 7.54688 5.57812H7.875C9.50348 5.57812 10.8281 6.90309 10.8281 8.53125C10.8281 9.26723 10.5837 9.96877 10.1427 10.5381ZM11.4676 8.20312C11.4092 7.55934 11.1809 6.96445 10.8281 6.46242V3.9375C10.8281 3.39478 11.2698 2.95312 11.8125 2.95312H13.568C13.694 3.30816 13.9181 3.61594 14.2091 3.84464C12.999 4.32797 12.1406 5.50987 12.1406 6.89062V7.54688H18.7031V6.89062C18.7031 5.50987 17.8447 4.32797 16.6346 3.84464C16.9257 3.61594 17.1498 3.30816 17.2758 2.95312H19.0312C19.574 2.95312 20.0156 3.39478 20.0156 3.9375V7.21875C20.0156 7.76147 19.574 8.20312 19.0312 8.20312H16.2524L14.7141 10.0488C14.6495 10.1269 14.5537 10.1719 14.4516 10.1719C14.2629 10.1719 14.1094 10.0183 14.1094 9.82964V8.20312H11.4676ZM15.4219 4.26562C16.8692 4.26562 18.0469 5.44327 18.0469 6.89062H12.7969C12.7969 5.44327 13.9745 4.26562 15.4219 4.26562Z" fill="#2C2C2C"/>
<path d="M12.1406 12.7969H19.3594V13.4531H12.1406V12.7969Z" fill="#2C2C2C"/>
<path d="M12.1406 14.1094H19.3594V14.7656H12.1406V14.1094Z" fill="#2C2C2C"/>
<path d="M13.4531 15.4219H18.0469V16.0781H13.4531V15.4219Z" fill="#2C2C2C"/>
<path d="M18.7031 15.4219H19.3594V16.0781H18.7031V15.4219Z" fill="#2C2C2C"/>
</svg>
