<svg width="21" height="21" viewBox="0 0 21 21" fill="none" xmlns="http://www.w3.org/2000/svg">
<path d="M15.5039 9.79618H18.7186C18.7854 9.96479 18.9089 10.1048 19.0678 10.1922C19.2268 10.2795 19.4112 10.3087 19.5894 10.2747C19.7675 10.2407 19.9282 10.1456 20.0438 10.0059C20.1594 9.86613 20.2227 9.69044 20.2227 9.50907C20.2227 9.3277 20.1594 9.15201 20.0438 9.01226C19.9282 8.8725 19.7675 8.77744 19.5894 8.74343C19.4112 8.70943 19.2268 8.73861 19.0678 8.82596C18.9089 8.9133 18.7854 9.05334 18.7186 9.22196H15.5039V7.81266H17.576C17.6522 7.81262 17.7252 7.78236 17.779 7.72852C17.8328 7.67469 17.8631 7.60169 17.8631 7.52555V5.63391H18.7186C18.7854 5.80253 18.9089 5.94257 19.0678 6.02992C19.2268 6.11726 19.4112 6.14645 19.5894 6.11244C19.7675 6.07844 19.9282 5.98337 20.0438 5.84362C20.1594 5.70386 20.2227 5.52817 20.2227 5.3468C20.2227 5.16544 20.1594 4.98975 20.0438 4.84999C19.9282 4.71024 19.7675 4.61517 19.5894 4.58117C19.4112 4.54716 19.2268 4.57634 19.0678 4.66369C18.9089 4.75104 18.7854 4.89108 18.7186 5.0597H17.576C17.4999 5.05974 17.4269 5.09 17.3731 5.14384C17.3192 5.19767 17.289 5.27067 17.2889 5.3468V7.23844H15.5039V5.78321C15.5039 5.70708 15.4736 5.63408 15.4198 5.58024C15.3659 5.52641 15.2929 5.49614 15.2168 5.4961H13.7616V3.7111H15.6532C15.7293 3.71106 15.8023 3.68079 15.8562 3.62696C15.91 3.57313 15.9403 3.50013 15.9403 3.42399V2.28146C16.1088 2.21466 16.2488 2.09118 16.3361 1.9323C16.4234 1.77342 16.4525 1.58907 16.4185 1.41101C16.3845 1.23295 16.2895 1.07231 16.1498 0.956776C16.0101 0.841237 15.8345 0.778025 15.6532 0.778025C15.4719 0.778025 15.2963 0.841237 15.1566 0.956776C15.0169 1.07231 14.9219 1.23295 14.8879 1.41101C14.8539 1.58907 14.8831 1.77342 14.9703 1.9323C15.0576 2.09118 15.1976 2.21466 15.3661 2.28146V3.13688H13.4745C13.3983 3.13693 13.3253 3.16719 13.2715 3.22102C13.2177 3.27486 13.1874 3.34786 13.1873 3.42399V5.4961H11.7781V2.28163C11.9466 2.21482 12.0865 2.09135 12.1738 1.93247C12.2611 1.77358 12.2903 1.58924 12.2562 1.41117C12.2222 1.23311 12.1272 1.07248 11.9875 0.95694C11.8478 0.841401 11.6722 0.778189 11.4909 0.778189C11.3097 0.778189 11.1341 0.841401 10.9944 0.95694C10.8547 1.07248 10.7596 1.23311 10.7256 1.41117C10.6916 1.58924 10.7208 1.77358 10.8081 1.93247C10.8954 2.09135 11.0353 2.21482 11.2038 2.28163V5.4961H9.79618V2.28146C9.96479 2.21466 10.1048 2.09114 10.1922 1.93219C10.2795 1.77324 10.3087 1.58881 10.2747 1.41066C10.2407 1.23251 10.1456 1.07179 10.0059 0.95619C9.86613 0.840591 9.69044 0.777344 9.50907 0.777344C9.3277 0.777344 9.15201 0.840591 9.01226 0.95619C8.8725 1.07179 8.77744 1.23251 8.74343 1.41066C8.70943 1.58881 8.73861 1.77324 8.82596 1.93219C8.9133 2.09114 9.05334 2.21466 9.22196 2.28146V5.4961H7.81266V3.42399C7.81262 3.34786 7.78236 3.27486 7.72852 3.22102C7.67469 3.16719 7.60169 3.13693 7.52555 3.13688H5.63391V2.28146C5.80253 2.21466 5.94257 2.09114 6.02992 1.93219C6.11726 1.77324 6.14645 1.58881 6.11244 1.41066C6.07844 1.23251 5.98337 1.07179 5.84362 0.95619C5.70386 0.840591 5.52817 0.777344 5.3468 0.777344C5.16544 0.777344 4.98975 0.840591 4.84999 0.95619C4.71024 1.07179 4.61517 1.23251 4.58117 1.41066C4.54716 1.58881 4.57634 1.77324 4.66369 1.93219C4.75104 2.09114 4.89108 2.21466 5.0597 2.28146V3.42399C5.05974 3.50013 5.09 3.57313 5.14384 3.62696C5.19767 3.68079 5.27067 3.71106 5.3468 3.7111H7.23844V5.4961H5.78321C5.70708 5.49614 5.63408 5.52641 5.58024 5.58024C5.52641 5.63408 5.49614 5.70708 5.4961 5.78321V7.23844H3.7111V5.3468C3.71106 5.27067 3.68079 5.19767 3.62696 5.14384C3.57313 5.09 3.50013 5.05974 3.42399 5.0597H2.28163C2.21482 4.89113 2.09133 4.75113 1.93241 4.66381C1.77349 4.5765 1.5891 4.54733 1.411 4.58133C1.23289 4.61534 1.07222 4.71039 0.956647 4.85011C0.841078 4.98983 0.777848 5.16548 0.777848 5.3468C0.777848 5.52813 0.841078 5.70378 0.956647 5.8435C1.07222 5.98322 1.23289 6.07827 1.411 6.11227C1.5891 6.14628 1.77349 6.11711 1.93241 6.0298C2.09133 5.94248 2.21482 5.80248 2.28163 5.63391H3.13688V7.52555C3.13693 7.60169 3.16719 7.67469 3.22102 7.72852C3.27486 7.78236 3.34786 7.81262 3.42399 7.81266H5.4961V9.22196H2.28163C2.21482 9.05344 2.09135 8.91348 1.93247 8.8262C1.77358 8.73891 1.58924 8.70976 1.41117 8.74377C1.23311 8.77777 1.07248 8.8728 0.95694 9.01249C0.841401 9.15218 0.778189 9.32779 0.778189 9.50907C0.778189 9.69035 0.841401 9.86596 0.95694 10.0056C1.07248 10.1453 1.23311 10.2404 1.41117 10.2744C1.58924 10.3084 1.77358 10.2792 1.93247 10.1919C2.09135 10.1047 2.21482 9.9647 2.28163 9.79618H5.4961V11.2038H2.28146C2.21466 11.0352 2.09114 10.8952 1.93219 10.8078C1.77324 10.7205 1.58881 10.6913 1.41066 10.7253C1.23251 10.7593 1.07179 10.8544 0.95619 10.9941C0.840591 11.1339 0.777344 11.3096 0.777344 11.4909C0.777344 11.6723 0.840591 11.848 0.95619 11.9878C1.07179 12.1275 1.23251 12.2226 1.41066 12.2566C1.58881 12.2906 1.77324 12.2614 1.93219 12.1741C2.09114 12.0867 2.21466 11.9467 2.28146 11.7781H5.4961V13.1873H3.42399C3.34786 13.1874 3.27486 13.2177 3.22102 13.2715C3.16719 13.3253 3.13693 13.3983 3.13688 13.4745V15.3661H2.28146C2.21466 15.1975 2.09114 15.0574 1.93219 14.9701C1.77324 14.8827 1.58881 14.8536 1.41066 14.8876C1.23251 14.9216 1.07179 15.0166 0.95619 15.1564C0.840591 15.2962 0.777344 15.4718 0.777344 15.6532C0.777344 15.8346 0.840591 16.0103 0.95619 16.15C1.07179 16.2898 1.23251 16.3848 1.41066 16.4188C1.58881 16.4529 1.77324 16.4237 1.93219 16.3363C2.09114 16.249 2.21466 16.1089 2.28146 15.9403H3.42399C3.50013 15.9403 3.57313 15.91 3.62696 15.8562C3.68079 15.8023 3.71106 15.7293 3.7111 15.6532V13.7616H5.4961V15.2168C5.49614 15.2929 5.52641 15.3659 5.58024 15.4198C5.63408 15.4736 5.70708 15.5039 5.78321 15.5039H7.23844V17.2889H5.3468C5.27067 17.289 5.19767 17.3192 5.14384 17.3731C5.09 17.4269 5.05974 17.4999 5.0597 17.576V18.7186C4.89117 18.7854 4.75122 18.9088 4.66393 19.0677C4.57665 19.2266 4.5475 19.4109 4.5815 19.589C4.61551 19.7671 4.71054 19.9277 4.85023 20.0432C4.98992 20.1588 5.16552 20.222 5.3468 20.222C5.52808 20.222 5.70369 20.1588 5.84338 20.0432C5.98307 19.9277 6.0781 19.7671 6.11211 19.589C6.14611 19.4109 6.11696 19.2266 6.02968 19.0677C5.94239 18.9088 5.80244 18.7854 5.63391 18.7186V17.8631H7.52555C7.60169 17.8631 7.67469 17.8328 7.72852 17.779C7.78236 17.7252 7.81262 17.6522 7.81266 17.576V15.5039H9.22196V18.7184C9.05344 18.7852 8.91348 18.9087 8.8262 19.0675C8.73891 19.2264 8.70976 19.4108 8.74377 19.5888C8.77777 19.7669 8.8728 19.9275 9.01249 20.0431C9.15218 20.1586 9.32779 20.2218 9.50907 20.2218C9.69035 20.2218 9.86596 20.1586 10.0056 20.0431C10.1453 19.9275 10.2404 19.7669 10.2744 19.5888C10.3084 19.4108 10.2792 19.2264 10.1919 19.0675C10.1047 18.9087 9.9647 18.7852 9.79618 18.7184V15.5039H11.2038V18.7186C11.0352 18.7854 10.8952 18.9089 10.8078 19.0678C10.7205 19.2268 10.6913 19.4112 10.7253 19.5894C10.7593 19.7675 10.8544 19.9282 10.9941 20.0438C11.1339 20.1594 11.3096 20.2227 11.4909 20.2227C11.6723 20.2227 11.848 20.1594 11.9878 20.0438C12.1275 19.9282 12.2226 19.7675 12.2566 19.5894C12.2906 19.4112 12.2614 19.2268 12.1741 19.0678C12.0867 18.9089 11.9467 18.7854 11.7781 18.7186V15.5039H13.1873V17.576C13.1874 17.6522 13.2177 17.7252 13.2715 17.779C13.3253 17.8328 13.3983 17.8631 13.4745 17.8631H15.3661V18.7186C15.1975 18.7854 15.0575 18.9088 14.9702 19.0678C14.8829 19.2267 14.8537 19.4111 14.8877 19.5892C14.9217 19.7673 15.0168 19.928 15.1565 20.0435C15.2962 20.1591 15.4719 20.2223 15.6532 20.2223C15.8345 20.2223 16.0102 20.1591 16.1499 20.0435C16.2896 19.928 16.3847 19.7673 16.4187 19.5892C16.4527 19.4111 16.4235 19.2267 16.3362 19.0678C16.2489 18.9088 16.1089 18.7854 15.9403 18.7186V17.576C15.9403 17.4999 15.91 17.4269 15.8562 17.3731C15.8023 17.3192 15.7293 17.289 15.6532 17.2889H13.7616V15.5039H15.2168C15.2929 15.5039 15.3659 15.4736 15.4198 15.4198C15.4736 15.3659 15.5039 15.2929 15.5039 15.2168V13.7616H17.2889V15.6532C17.289 15.7293 17.3192 15.8023 17.3731 15.8562C17.4269 15.91 17.4999 15.9403 17.576 15.9403H18.7186C18.7854 16.1088 18.9088 16.2488 19.0677 16.3361C19.2266 16.4234 19.4109 16.4525 19.589 16.4185C19.7671 16.3845 19.9277 16.2895 20.0432 16.1498C20.1588 16.0101 20.222 15.8345 20.222 15.6532C20.222 15.4719 20.1588 15.2963 20.0432 15.1566C19.9277 15.0169 19.7671 14.9219 19.589 14.8879C19.4109 14.8539 19.2266 14.8831 19.0677 14.9703C18.9088 15.0576 18.7854 15.1976 18.7186 15.3661H17.8631V13.4745C17.8631 13.3983 17.8328 13.3253 17.779 13.2715C17.7252 13.2177 17.6522 13.1874 17.576 13.1873H15.5039V11.7781H18.7184C18.7852 11.9466 18.9087 12.0865 19.0675 12.1738C19.2264 12.2611 19.4108 12.2903 19.5888 12.2562C19.7669 12.2222 19.9275 12.1272 20.0431 11.9875C20.1586 11.8478 20.2218 11.6722 20.2218 11.4909C20.2218 11.3097 20.1586 11.1341 20.0431 10.9944C19.9275 10.8547 19.7669 10.7596 19.5888 10.7256C19.4108 10.6916 19.2264 10.7208 19.0675 10.8081C18.9087 10.8954 18.7852 11.0353 18.7184 11.2038H15.5039V9.79618ZM19.4414 9.30399C19.482 9.30399 19.5216 9.31602 19.5553 9.33855C19.5891 9.36109 19.6154 9.39312 19.6309 9.43059C19.6464 9.46806 19.6505 9.5093 19.6425 9.54908C19.6346 9.58886 19.6151 9.6254 19.5864 9.65408C19.5577 9.68276 19.5212 9.70229 19.4814 9.71021C19.4416 9.71812 19.4004 9.71406 19.3629 9.69854C19.3255 9.68301 19.2934 9.65673 19.2709 9.623C19.2484 9.58928 19.2363 9.54963 19.2363 9.50907C19.2363 9.45465 19.2579 9.40245 19.2964 9.36394C19.3348 9.32543 19.387 9.30375 19.4414 9.30366V9.30399ZM19.4414 5.14189C19.482 5.14189 19.5216 5.15392 19.5553 5.17645C19.5891 5.19899 19.6154 5.23102 19.6309 5.26849C19.6464 5.30596 19.6505 5.3472 19.6425 5.38698C19.6346 5.42676 19.6151 5.4633 19.5864 5.49198C19.5577 5.52066 19.5212 5.54019 19.4814 5.54811C19.4416 5.55602 19.4004 5.55196 19.3629 5.53644C19.3255 5.52091 19.2934 5.49463 19.2709 5.4609C19.2484 5.42718 19.2363 5.38753 19.2363 5.34697C19.2363 5.29255 19.2579 5.24035 19.2964 5.20184C19.3348 5.16333 19.387 5.14165 19.4414 5.14156V5.14189ZM15.6534 1.35352C15.6939 1.35352 15.7336 1.36555 15.7673 1.38809C15.801 1.41062 15.8273 1.44265 15.8428 1.48012C15.8584 1.5176 15.8624 1.55883 15.8545 1.59861C15.8466 1.63839 15.8271 1.67493 15.7984 1.70361C15.7697 1.73229 15.7332 1.75183 15.6934 1.75974C15.6536 1.76765 15.6124 1.76359 15.5749 1.74807C15.5374 1.73255 15.5054 1.70626 15.4829 1.67254C15.4603 1.63881 15.4483 1.59916 15.4483 1.5586C15.4484 1.50424 15.47 1.45213 15.5085 1.41369C15.5469 1.37525 15.599 1.35361 15.6534 1.35352ZM11.4913 1.35352C11.5318 1.35352 11.5715 1.36555 11.6052 1.38809C11.6389 1.41062 11.6652 1.44265 11.6807 1.48012C11.6963 1.5176 11.7003 1.55883 11.6924 1.59861C11.6845 1.63839 11.665 1.67493 11.6363 1.70361C11.6076 1.73229 11.5711 1.75183 11.5313 1.75974C11.4915 1.76765 11.4503 1.76359 11.4128 1.74807C11.3753 1.73255 11.3433 1.70626 11.3208 1.67254C11.2982 1.63881 11.2862 1.59916 11.2862 1.5586C11.2863 1.50424 11.3079 1.45213 11.3464 1.41369C11.3848 1.37525 11.4369 1.35361 11.4913 1.35352ZM9.50874 1.35352C9.5493 1.35352 9.58895 1.36555 9.62268 1.38809C9.6564 1.41062 9.68269 1.44265 9.69821 1.48012C9.71373 1.5176 9.71779 1.55883 9.70988 1.59861C9.70197 1.63839 9.68243 1.67493 9.65375 1.70361C9.62507 1.73229 9.58853 1.75183 9.54875 1.75974C9.50897 1.76765 9.46773 1.76359 9.43026 1.74807C9.39279 1.73255 9.36076 1.70626 9.33822 1.67254C9.31569 1.63881 9.30366 1.59916 9.30366 1.5586C9.30371 1.50423 9.32533 1.45209 9.36378 1.41364C9.40223 1.37519 9.45436 1.35357 9.50874 1.35352ZM5.34664 1.35352C5.3872 1.35352 5.42685 1.36555 5.46058 1.38809C5.4943 1.41062 5.52059 1.44265 5.53611 1.48012C5.55163 1.5176 5.55569 1.55883 5.54778 1.59861C5.53987 1.63839 5.52033 1.67493 5.49165 1.70361C5.46297 1.73229 5.42643 1.75183 5.38665 1.75974C5.34687 1.76765 5.30563 1.76359 5.26816 1.74807C5.23069 1.73255 5.19866 1.70626 5.17612 1.67254C5.15359 1.63881 5.14156 1.59916 5.14156 1.5586C5.14161 1.50423 5.16323 1.45209 5.20168 1.41364C5.24013 1.37519 5.29226 1.35357 5.34664 1.35352ZM1.5586 5.55172C1.51804 5.55172 1.47839 5.53969 1.44467 5.51716C1.41094 5.49462 1.38466 5.46259 1.36913 5.42512C1.35361 5.38765 1.34955 5.34641 1.35746 5.30663C1.36538 5.26685 1.38491 5.23031 1.41359 5.20163C1.44227 5.17295 1.47881 5.15342 1.51859 5.1455C1.55837 5.13759 1.59961 5.14165 1.63708 5.15717C1.67456 5.17269 1.70658 5.19898 1.72912 5.23271C1.75165 5.26643 1.76368 5.30608 1.76368 5.34664C1.76364 5.40102 1.74202 5.45315 1.70357 5.4916C1.66512 5.53005 1.61298 5.55167 1.5586 5.55172ZM1.5586 9.71382C1.51804 9.71382 1.47839 9.70179 1.44467 9.67926C1.41094 9.65672 1.38466 9.62469 1.36913 9.58722C1.35361 9.54975 1.34955 9.50851 1.35746 9.46873C1.36538 9.42895 1.38491 9.39241 1.41359 9.36373C1.44227 9.33505 1.47881 9.31552 1.51859 9.3076C1.55837 9.29969 1.59961 9.30375 1.63708 9.31927C1.67456 9.33479 1.70658 9.36108 1.72912 9.39481C1.75165 9.42853 1.76368 9.46818 1.76368 9.50874C1.76364 9.56312 1.74202 9.61526 1.70357 9.65371C1.66512 9.69216 1.61298 9.71378 1.5586 9.71382ZM1.5586 11.6964C1.51804 11.6964 1.47839 11.6843 1.44467 11.6618C1.41094 11.6393 1.38466 11.6072 1.36913 11.5698C1.35361 11.5323 1.34955 11.491 1.35746 11.4513C1.36538 11.4115 1.38491 11.3749 1.41359 11.3463C1.44227 11.3176 1.47881 11.298 1.51859 11.2901C1.55837 11.2822 1.59961 11.2863 1.63708 11.3018C1.67456 11.3173 1.70658 11.3436 1.72912 11.3773C1.75165 11.4111 1.76368 11.4507 1.76368 11.4913C1.76359 11.5456 1.74196 11.5977 1.70352 11.6362C1.66508 11.6746 1.61297 11.6963 1.5586 11.6964ZM1.5586 15.8585C1.51804 15.8585 1.47839 15.8464 1.44467 15.8239C1.41094 15.8014 1.38466 15.7693 1.36913 15.7319C1.35361 15.6944 1.34955 15.6531 1.35746 15.6134C1.36538 15.5736 1.38491 15.537 1.41359 15.5084C1.44227 15.4797 1.47881 15.4601 1.51859 15.4522C1.55837 15.4443 1.59961 15.4484 1.63708 15.4639C1.67456 15.4794 1.70658 15.5057 1.72912 15.5394C1.75165 15.5732 1.76368 15.6128 1.76368 15.6534C1.76359 15.7077 1.74196 15.7598 1.70352 15.7983C1.66508 15.8367 1.61297 15.8584 1.5586 15.8585ZM5.34664 19.6465C5.30608 19.6465 5.26643 19.6345 5.23271 19.6119C5.19898 19.5894 5.17269 19.5574 5.15717 19.5199C5.14165 19.4824 5.13759 19.4412 5.1455 19.4014C5.15342 19.3616 5.17295 19.3251 5.20163 19.2964C5.23031 19.2677 5.26685 19.2482 5.30663 19.2403C5.34641 19.2324 5.38765 19.2364 5.42512 19.2519C5.46259 19.2675 5.49462 19.2938 5.51716 19.3275C5.53969 19.3612 5.55172 19.4009 5.55172 19.4414C5.55163 19.4958 5.53 19.5479 5.49156 19.5863C5.45312 19.6248 5.401 19.6464 5.34664 19.6465ZM9.50874 19.6465C9.46818 19.6465 9.42853 19.6345 9.39481 19.6119C9.36108 19.5894 9.33479 19.5574 9.31927 19.5199C9.30375 19.4824 9.29969 19.4412 9.3076 19.4014C9.31552 19.3616 9.33505 19.3251 9.36373 19.2964C9.39241 19.2677 9.42895 19.2482 9.46873 19.2403C9.50851 19.2324 9.54975 19.2364 9.58722 19.2519C9.62469 19.2675 9.65672 19.2938 9.67926 19.3275C9.70179 19.3612 9.71382 19.4009 9.71382 19.4414C9.71373 19.4958 9.6921 19.5479 9.65366 19.5863C9.61522 19.6248 9.5631 19.6464 9.50874 19.6465ZM11.4913 19.6465C11.4507 19.6465 11.4111 19.6345 11.3773 19.6119C11.3436 19.5894 11.3173 19.5574 11.3018 19.5199C11.2863 19.4824 11.2822 19.4412 11.2901 19.4014C11.298 19.3616 11.3176 19.3251 11.3463 19.2964C11.3749 19.2677 11.4115 19.2482 11.4513 19.2403C11.491 19.2324 11.5323 19.2364 11.5698 19.2519C11.6072 19.2675 11.6393 19.2938 11.6618 19.3275C11.6843 19.3612 11.6964 19.4009 11.6964 19.4414C11.6963 19.4958 11.6747 19.5479 11.6362 19.5864C11.5978 19.6248 11.5456 19.6464 11.4913 19.6465ZM15.6534 19.6465C15.6128 19.6465 15.5732 19.6345 15.5394 19.6119C15.5057 19.5894 15.4794 19.5574 15.4639 19.5199C15.4484 19.4824 15.4443 19.4412 15.4522 19.4014C15.4601 19.3616 15.4797 19.3251 15.5084 19.2964C15.537 19.2677 15.5736 19.2482 15.6134 19.2403C15.6531 19.2324 15.6944 19.2364 15.7319 19.2519C15.7693 19.2675 15.8014 19.2938 15.8239 19.3275C15.8464 19.3612 15.8585 19.4009 15.8585 19.4414C15.8584 19.4958 15.8368 19.5479 15.7983 19.5864C15.7599 19.6248 15.7078 19.6464 15.6534 19.6465ZM19.4414 15.4483C19.482 15.4483 19.5216 15.4603 19.5553 15.4829C19.5891 15.5054 19.6154 15.5374 19.6309 15.5749C19.6464 15.6124 19.6505 15.6536 19.6425 15.6934C19.6346 15.7332 19.6151 15.7697 19.5864 15.7984C19.5577 15.8271 19.5212 15.8466 19.4814 15.8545C19.4416 15.8624 19.4004 15.8584 19.3629 15.8428C19.3255 15.8273 19.2934 15.801 19.2709 15.7673C19.2484 15.7336 19.2363 15.6939 19.2363 15.6534C19.2364 15.599 19.258 15.5469 19.2964 15.5084C19.3349 15.47 19.387 15.4483 19.4414 15.4483ZM19.4414 11.2862C19.482 11.2862 19.5216 11.2982 19.5553 11.3208C19.5891 11.3433 19.6154 11.3753 19.6309 11.4128C19.6464 11.4503 19.6505 11.4915 19.6425 11.5313C19.6346 11.5711 19.6151 11.6076 19.5864 11.6363C19.5577 11.665 19.5212 11.6845 19.4814 11.6924C19.4416 11.7003 19.4004 11.6963 19.3629 11.6807C19.3255 11.6652 19.2934 11.6389 19.2709 11.6052C19.2484 11.5715 19.2363 11.5318 19.2363 11.4913C19.2364 11.4369 19.258 11.3848 19.2964 11.3463C19.3349 11.3079 19.387 11.2862 19.4414 11.2862ZM14.9297 14.9297H6.07032V6.07032H14.9297V14.9297Z" fill="#2C2C2C"/>
<path d="M13.7402 6.97266H7.25977C7.18363 6.9727 7.11063 7.00296 7.0568 7.0568C7.00296 7.11063 6.9727 7.18363 6.97266 7.25977V13.7402C6.9727 13.8164 7.00296 13.8894 7.0568 13.9432C7.11063 13.997 7.18363 14.0273 7.25977 14.0273H13.7402C13.8164 14.0273 13.8894 13.997 13.9432 13.9432C13.997 13.8894 14.0273 13.8164 14.0273 13.7402V7.25977C14.0273 7.18363 13.997 7.11063 13.9432 7.0568C13.8894 7.00296 13.8164 6.9727 13.7402 6.97266ZM13.4531 13.4531H7.54688V7.54688H13.4531V13.4531Z" fill="#2C2C2C"/>
<path d="M12.7559 10.9238C12.832 10.9238 12.905 10.8935 12.9588 10.8397C13.0127 10.7859 13.0429 10.7129 13.043 10.6367V9.0166C13.043 8.94046 13.0127 8.86743 12.9589 8.81358C12.905 8.75974 12.832 8.72949 12.7559 8.72949C12.6797 8.72949 12.6067 8.75974 12.5528 8.81358C12.499 8.86743 12.4688 8.94046 12.4688 9.0166V10.6367C12.4688 10.7129 12.4991 10.7859 12.5529 10.8397C12.6067 10.8935 12.6797 10.9238 12.7559 10.9238Z" fill="#2C2C2C"/>
</svg>
