<svg width="21" height="21" viewBox="0 0 21 21" fill="none" xmlns="http://www.w3.org/2000/svg">
<g clip-path="url(#clip0_87_1352)">
<path d="M10.5 2.625C10.2585 2.625 10.0625 2.429 10.0625 2.1875V0.4375C10.0625 0.196 10.2585 0 10.5 0C10.7415 0 10.9375 0.196 10.9375 0.4375V2.1875C10.9375 2.429 10.7415 2.625 10.5 2.625Z" fill="#2C2C2C"/>
<path d="M16.3781 5.05923C16.2661 5.05923 16.1541 5.01635 16.0684 4.93148C15.8978 4.76085 15.8978 4.48348 16.0684 4.31285L17.3056 3.0756C17.4763 2.90498 17.7536 2.90498 17.9243 3.0756C18.0949 3.24623 18.0949 3.5236 17.9243 3.69423L16.687 4.93148C16.6021 5.01635 16.4901 5.05923 16.3781 5.05923Z" fill="#2C2C2C"/>
<path d="M20.5625 10.9375H18.8125C18.571 10.9375 18.375 10.7415 18.375 10.5C18.375 10.2585 18.571 10.0625 18.8125 10.0625H20.5625C20.804 10.0625 21 10.2585 21 10.5C21 10.7415 20.804 10.9375 20.5625 10.9375Z" fill="#2C2C2C"/>
<path d="M17.6154 18.053C17.5034 18.053 17.3914 18.0101 17.3056 17.9253L16.0684 16.688C15.8978 16.5174 15.8978 16.24 16.0684 16.0694C16.239 15.8987 16.5164 15.8987 16.687 16.0694L17.9243 17.3066C18.0949 17.4773 18.0949 17.7546 17.9243 17.9253C17.8394 18.0101 17.7274 18.053 17.6154 18.053Z" fill="#2C2C2C"/>
<path d="M10.5 21C10.2585 21 10.0625 20.804 10.0625 20.5625V18.8125C10.0625 18.571 10.2585 18.375 10.5 18.375C10.7415 18.375 10.9375 18.571 10.9375 18.8125V20.5625C10.9375 20.804 10.7415 21 10.5 21Z" fill="#2C2C2C"/>
<path d="M3.38498 18.053C3.27298 18.053 3.16098 18.0101 3.07523 17.9253C2.90461 17.7546 2.90461 17.4773 3.07523 17.3066L4.31248 16.0694C4.48311 15.8987 4.76048 15.8987 4.93111 16.0694C5.10173 16.24 5.10173 16.5174 4.93111 16.688L3.69386 17.9253C3.60898 18.0101 3.49698 18.053 3.38498 18.053Z" fill="#2C2C2C"/>
<path d="M2.1875 10.9375H0.4375C0.196 10.9375 0 10.7415 0 10.5C0 10.2585 0.196 10.0625 0.4375 10.0625H2.1875C2.429 10.0625 2.625 10.2585 2.625 10.5C2.625 10.7415 2.429 10.9375 2.1875 10.9375Z" fill="#2C2C2C"/>
<path d="M4.62136 5.05923C4.50936 5.05923 4.39736 5.01635 4.31161 4.93148L3.07523 3.69423C2.90461 3.5236 2.90461 3.24623 3.07523 3.0756C3.24586 2.90498 3.52324 2.90498 3.69386 3.0756L4.93111 4.31285C5.10174 4.48348 5.10174 4.76085 4.93111 4.93148C4.84536 5.01635 4.73336 5.05923 4.62136 5.05923Z" fill="#2C2C2C"/>
<path d="M9.25147 17.5C9.19985 17.5 9.1491 17.4913 9.09835 17.4729C8.90672 17.4012 8.79035 17.2069 8.81747 17.0057L9.56385 11.375H6.5626C6.39722 11.375 6.24585 11.2814 6.17147 11.1335C6.0971 10.9857 6.11285 10.808 6.2126 10.675L11.4626 3.67505C11.5842 3.5123 11.8003 3.45455 11.985 3.53505C12.1705 3.61467 12.2781 3.8098 12.2448 4.0093L11.4538 8.75005H14.4376C14.5986 8.75005 14.7465 8.83842 14.8226 8.98017C14.8987 9.12192 14.8908 9.29342 14.8033 9.42905L9.61722 17.304C9.5341 17.4292 9.39497 17.5 9.25147 17.5ZM7.4376 10.5H10.0626C10.1895 10.5 10.3085 10.5552 10.3916 10.6497C10.4747 10.7433 10.5132 10.8702 10.4966 10.9953L9.93572 15.2285L13.6256 9.62505H10.9376C10.809 9.62505 10.6873 9.56905 10.6033 9.47017C10.5202 9.37217 10.4843 9.2418 10.5062 9.1158L11.0863 5.63505L7.4376 10.5Z" fill="#2C2C2C"/>
</g>
<defs>
<clipPath id="clip0_87_1352">
<rect width="21" height="21" fill="white"/>
</clipPath>
</defs>
</svg>
