<svg width="74" height="42" viewBox="0 0 74 42" fill="none" xmlns="http://www.w3.org/2000/svg">
<g filter="url(#filter0_d_4_9071)">
<path d="M1.46179 20.1767C1.32355 19.2719 2.10005 18.6491 2.4677 17.8971C2.6677 17.474 2.55 16.9012 2.77647 16.7426C3.00294 16.581 3.61468 16.7896 4.16762 17.1744C4.21762 16.8395 4.00294 16.8072 3.75294 16.6309C3.39117 16.3812 3.59119 15.7026 3.43825 15.3207C2.93825 14.0928 3.95593 13.2703 4.77357 12.4183C5.4471 11.7133 6.13822 10.8878 6.97057 10.3737C7.90586 9.80673 9.02648 9.41016 7.77354 8.29973C8.02354 8.19397 8.26178 8.07645 8.49708 7.95601C7.45002 7.71512 5.97644 5.45607 6.04409 4.42201C6.10586 3.52896 7.33236 4.44845 7.82353 4.18406C8.27942 3.94317 8.69409 3.58478 8.98527 3.16175C9.34115 2.6271 10.2442 2.7681 10.7824 2.76516C12.003 2.75929 13.2265 2.65353 14.4382 2.60653C15.5117 2.5654 16.3794 2.95611 17.3912 3.20875C17.8823 3.33213 19.4471 3.17351 19.8029 3.56422C20.1647 3.97255 20.5236 4.40731 21.1412 4.20461C21.6706 4.02541 22.0618 4.53363 22.5353 4.65114C22.6118 3.93729 22.8853 4.33975 23.4853 4.27219C23.9206 4.22225 24.3059 4.20168 24.6853 4.47782C24.9559 4.67464 25.353 4.30744 25.6677 4.43963C25.9706 4.56595 25.9824 5.06242 26.3088 5.21224C26.203 4.34563 27.253 4.06067 27.8853 4.3985C28.5589 4.75396 28.5265 5.75277 29.5177 5.03598C29.8059 4.83035 30.0323 4.82152 30.3618 4.98309C30.7853 5.1946 31.3442 4.75102 31.8147 4.85384C32.1089 4.91847 33.3941 6.44313 33.5735 5.64408C33.803 4.65997 32.953 4.34269 33.5118 3.25869C33.9147 2.48902 34.6235 1.56072 35.5588 2.02488C35.7059 2.09832 36.2912 1.8016 36.4295 1.76635C36.8647 1.65765 37.4883 1.66942 37.9236 1.77518C38.7912 1.98375 39.6706 2.23052 39.853 0.626554C42.0559 0.935009 41.5588 1.02608 43.0324 0.5443C43.7236 0.497297 44.4412 1.01726 45.1883 0.591299C45.6177 0.350411 46.3765 1.18175 46.5559 1.5989C47.1824 3.1118 47.9294 2.67116 48.3294 3.49664C48.0118 3.69053 47.3941 3.6964 47.15 3.95785C47.0059 4.11355 48.4323 5.53537 47.7911 5.91433C48.3235 6.09647 49.7441 6.61938 50.4088 6.26392C51.1677 5.85559 51.6148 7.05709 52.4177 7.01302C52.4442 7.24216 52.053 7.35379 53.5059 10.0329C54.1736 10.7262 54.7823 10.0535 55.247 10.0094C56.0706 9.93013 56.8736 10.7997 57.8412 11.0964C58.4589 11.0934 59.3118 10.3561 60.5618 10.0329C61.2853 9.84786 61.803 10.5441 62.0265 11.0318C62.3883 11.822 63.5383 11.9923 63.7883 12.7003C64.7853 12.1245 64.3324 11.725 65.55 12.3596C66.1795 12.6886 67.8647 13.3936 68.3823 12.7855C68.8353 13.6815 69.5471 13.1469 70.0588 13.752C70.3088 14.0517 70.7324 14.2426 71.103 14.3366C71.7706 14.5041 71.9589 13.9812 72.4471 14.1603C71.85 14.7332 73.1735 15.9934 72.1088 16.7778C71.8088 17.004 71.0736 16.9041 71.3442 17.474C71.7 18.2173 72.4764 17.3095 72.5 18.2466C71.9941 18.0968 71.1353 18.561 71.4265 19.2043C71.5235 19.4246 73.1441 19.9769 72.3059 20.5909C72.4794 20.7348 72.6853 20.776 72.9059 20.7202C73.0117 21.0756 72.6 22.4593 72.4441 22.7148C71.95 23.5197 70.7147 22.847 69.9324 23.0057C69.4706 23.0967 69.0765 22.7941 68.6324 23.035C68.2118 23.2583 68.2029 23.8194 67.6088 24.0162C65.8441 25.0385 66.6088 25.7729 66.8853 25.7906C66.5588 26.0784 66.8941 26.5544 66.4941 26.7864C66.0088 27.0655 64.7706 26.7776 64.1853 26.8834C63.6117 26.9891 63.5353 27.609 62.9353 27.656C62.2294 27.7089 61.4 28.079 61.2206 28.8369C60.8971 28.2934 60.153 28.3375 59.6647 28.6136C58.8559 29.0749 58.2853 28.8457 57.4236 29.1043C55.9824 29.5361 55.7589 31.5543 54.3059 31.9244C54.3618 31.6747 56.3941 30.1207 54.7853 29.9062C55.3412 30.72 54.2618 30.8757 53.7736 31.2017C53.6 31.3192 54.0794 32.8263 54.0559 32.9731C53.9353 32.5589 53.2001 31.9773 53.153 32.1418C53.103 32.0125 53.7001 31.7011 52.9501 31.3956C52.3912 33.8251 51.5794 31.2693 52.4147 31.895C52.4971 31.425 52.4677 30.814 52.4647 31.4103C52.4941 31.4661 52.2353 31.5307 52.0618 31.5043C51.8324 31.472 51.6353 31.0901 51.5618 31.7658C51.6412 31.8128 50.8206 30.8228 50.8294 30.8962C50.8736 31.3045 51.2618 31.5954 48.9147 31.1841C49.053 31.422 49.5912 31.8598 50.1765 32.2211C50.2235 31.9597 50.5147 31.71 50.8794 32.5384C50.7353 31.1753 52.6147 33.3227 52.6559 32.5061C52.7059 32.5707 52.9706 32.9761 52.4118 33.4402L53.2118 32.9614C52.9471 33.3991 54.6794 34.1482 54.7441 34.2334C55.5265 35.2293 54.2089 35.4408 56.3059 36.0342C56.2265 35.6288 54.4 33.7957 54.7618 34.1335C55.05 34.4038 55.7588 35.0706 56.0647 35.2381C56.3706 35.4085 56.6617 35.5348 56.9206 35.5965C57.1823 35.6582 57.4148 35.6582 57.603 35.573C57.7824 35.4878 57.9206 35.3233 58 35.053C58.4618 35.5906 58.7559 35.4261 59.2883 35.1529C60 34.7827 60.8676 35.1353 61.4353 35.6112C60.7529 35.7022 60.7618 36.0312 60.7706 36.5982C60.7853 37.2915 60.15 37.2592 59.6177 37.3209C59.0412 37.3855 58.7206 37.3591 58.1941 37.0712C57.8794 36.8949 57.4353 36.6188 57.05 36.7715C56.6647 36.9214 56.8706 37.3238 56.6383 37.4149C56.0706 37.644 55.7353 38.211 55.1295 38.2991C54.303 38.4137 53.5794 38.3344 52.9353 38.9777C51.8383 40.0852 49.7882 41.416 48.5941 39.4272C49.4559 39.6211 49.6706 36.7245 48.3412 36.5248C47.6088 36.419 47.2235 36.1546 46.6029 35.7845C46.0235 35.4408 45.4853 35.6846 44.8736 35.6082C43.9471 35.4878 46.0177 34.11 46.3382 33.9808C46.9706 33.7311 49.1617 33.3785 49.3647 32.6089C48.8147 32.6236 48.7265 32.086 48.7148 31.6659C48.0853 32.0184 48.247 32.1065 47.4382 31.7099C46.7765 31.3868 45.8883 31.7334 45.1647 31.7481C44.3736 31.7599 43.8823 31.848 43.1529 31.4485C42.5382 31.1048 41.8383 30.5466 41.0794 30.767C43.3177 29.8827 40.5089 30.2206 39.9647 29.4362C41.3647 30.1236 43.2353 29.9297 44.4235 29.0514C43.6265 29.2776 42.5412 29.6712 41.8324 28.9662C41.2971 28.4374 41.7059 27.5385 41.1265 26.9921C41.5735 27.5884 41.4324 28.1554 41.4441 28.8163C41.4471 29.3216 40.2824 29.0014 40.0059 29.1777C39.8501 28.8839 39.8676 28.599 40.05 28.3199C39.7 28.3933 39.6382 28.8575 39.4647 29.1043C39.2265 29.448 38.5147 29.1219 38.153 29.1835C36.6 29.4538 36.8382 30.9285 35.9294 31.8774C35.85 31.4279 34.9882 30.0678 34.3911 30.5055C34.6088 31.1342 35.5912 31.187 35.7735 31.8216C35.9941 32.5707 33.8941 33.9484 33.3588 34.2363C33.8471 33.9132 34.453 33.5695 34.6059 32.9496C34.0383 32.9908 32.9941 34.8709 32.8823 33.5489C32.6147 33.8456 32.2324 34.7974 33.0942 34.4067C32.9912 34.5448 32.8911 34.6858 32.7941 34.8356C33.397 34.9238 33.7382 36.0783 33.053 36.2927C32.8588 34.4596 31.3353 35.3262 30.5029 35.5348C29.4235 35.7992 29.1794 36.5865 27.9647 35.7727C27.7764 35.6494 26.4235 34.9208 27.4353 34.7446C28.4882 34.5624 28.1618 33.9719 28.6647 33.3462C29.2206 32.6529 29.8588 32.1095 29.7176 31.0813C29.5882 30.1794 29.4501 29.965 30.5618 29.5596C30.6559 29.821 30.753 30.0766 30.8648 30.3322C31.5059 29.0132 33.2765 31.1959 34.2383 30.1824C33.8206 30.056 33.6559 29.68 33.2618 29.5155C34.3912 28.9544 32.4177 27.1301 31.4853 27.0038C31.7206 26.6219 31.7294 25.159 31.197 25.8581C31.0264 26.0696 30.4588 24.4216 30.347 24.2512C30.0588 23.8165 29.9706 23.3464 29.6589 22.8705C28.8706 21.6749 29.2236 23.1202 28.3677 22.1361C28.0059 21.7219 27.0589 21.0345 26.8706 21.8982C26.7324 21.1285 26.2235 22.095 26.0765 21.3518C25.2059 21.763 24.2265 20.0651 23.4647 19.8271C22.8617 19.6362 22.4059 20.679 20.6354 20.2883C20.2912 20.2119 19.8795 20.3001 20 20.7701C19.8059 21.0257 19.2118 20.9669 18.8971 21.0433C18.5853 21.1167 18.1794 21.2607 18.0589 21.5985C17.7824 22.3799 17.3736 22.3153 16.5648 22.3858C15.5706 22.4769 14.4911 22.2859 13.7647 23.1055C12.6853 24.3158 12.103 22.8353 11.0824 22.5033C10.5941 22.3447 10.0383 22.5151 9.55002 22.5738C8.9412 22.6443 8.62648 22.4446 8.05295 22.3447C7.47354 22.2448 6.89707 22.4416 6.37943 22.0803C5.51178 21.4722 5.3941 22.2389 4.59998 22.4387C4.57939 21.5192 3.69415 21.8835 3.23827 21.3753C2.91474 21.0169 2.72651 21.1755 2.41474 20.9405C2.05886 20.682 1.97355 20.2942 1.46179 20.1767Z" fill="url(#paint0_linear_4_9071)"/>
<path d="M1.46179 20.1767C1.32355 19.2719 2.10005 18.6491 2.4677 17.8971C2.6677 17.474 2.55 16.9012 2.77647 16.7426C3.00294 16.581 3.61468 16.7896 4.16762 17.1744C4.21762 16.8395 4.00294 16.8072 3.75294 16.6309C3.39117 16.3812 3.59119 15.7026 3.43825 15.3207C2.93825 14.0928 3.95593 13.2703 4.77357 12.4183C5.4471 11.7133 6.13822 10.8878 6.97057 10.3737C7.90586 9.80673 9.02648 9.41016 7.77354 8.29973C8.02354 8.19397 8.26178 8.07645 8.49708 7.95601C7.45002 7.71512 5.97644 5.45607 6.04409 4.42201C6.10586 3.52896 7.33236 4.44845 7.82353 4.18406C8.27942 3.94317 8.69409 3.58478 8.98527 3.16175C9.34115 2.6271 10.2442 2.7681 10.7824 2.76516C12.003 2.75929 13.2265 2.65353 14.4382 2.60653C15.5117 2.5654 16.3794 2.95611 17.3912 3.20875C17.8823 3.33213 19.4471 3.17351 19.8029 3.56422C20.1647 3.97255 20.5236 4.40731 21.1412 4.20461C21.6706 4.02541 22.0618 4.53363 22.5353 4.65114C22.6118 3.93729 22.8853 4.33975 23.4853 4.27219C23.9206 4.22225 24.3059 4.20168 24.6853 4.47782C24.9559 4.67464 25.353 4.30744 25.6677 4.43963C25.9706 4.56595 25.9824 5.06242 26.3088 5.21224C26.203 4.34563 27.253 4.06067 27.8853 4.3985C28.5589 4.75396 28.5265 5.75277 29.5177 5.03598C29.8059 4.83035 30.0323 4.82152 30.3618 4.98309C30.7853 5.1946 31.3442 4.75102 31.8147 4.85384C32.1089 4.91847 33.3941 6.44313 33.5735 5.64408C33.803 4.65997 32.953 4.34269 33.5118 3.25869C33.9147 2.48902 34.6235 1.56072 35.5588 2.02488C35.7059 2.09832 36.2912 1.8016 36.4295 1.76635C36.8647 1.65765 37.4883 1.66942 37.9236 1.77518C38.7912 1.98375 39.6706 2.23052 39.853 0.626554C42.0559 0.935009 41.5588 1.02608 43.0324 0.5443C43.7236 0.497297 44.4412 1.01726 45.1883 0.591299C45.6177 0.350411 46.3765 1.18175 46.5559 1.5989C47.1824 3.1118 47.9294 2.67116 48.3294 3.49664C48.0118 3.69053 47.3941 3.6964 47.15 3.95785C47.0059 4.11355 48.4323 5.53537 47.7911 5.91433C48.3235 6.09647 49.7441 6.61938 50.4088 6.26392C51.1677 5.85559 51.6148 7.05709 52.4177 7.01302C52.4442 7.24216 52.053 7.35379 53.5059 10.0329C54.1736 10.7262 54.7823 10.0535 55.247 10.0094C56.0706 9.93013 56.8736 10.7997 57.8412 11.0964C58.4589 11.0934 59.3118 10.3561 60.5618 10.0329C61.2853 9.84786 61.803 10.5441 62.0265 11.0318C62.3883 11.822 63.5383 11.9923 63.7883 12.7003C64.7853 12.1245 64.3324 11.725 65.55 12.3596C66.1795 12.6886 67.8647 13.3936 68.3823 12.7855C68.8353 13.6815 69.5471 13.1469 70.0588 13.752C70.3088 14.0517 70.7324 14.2426 71.103 14.3366C71.7706 14.5041 71.9589 13.9812 72.4471 14.1603C71.85 14.7332 73.1735 15.9934 72.1088 16.7778C71.8088 17.004 71.0736 16.9041 71.3442 17.474C71.7 18.2173 72.4764 17.3095 72.5 18.2466C71.9941 18.0968 71.1353 18.561 71.4265 19.2043C71.5235 19.4246 73.1441 19.9769 72.3059 20.5909C72.4794 20.7348 72.6853 20.776 72.9059 20.7202C73.0117 21.0756 72.6 22.4593 72.4441 22.7148C71.95 23.5197 70.7147 22.847 69.9324 23.0057C69.4706 23.0967 69.0765 22.7941 68.6324 23.035C68.2118 23.2583 68.2029 23.8194 67.6088 24.0162C65.8441 25.0385 66.6088 25.7729 66.8853 25.7906C66.5588 26.0784 66.8941 26.5544 66.4941 26.7864C66.0088 27.0655 64.7706 26.7776 64.1853 26.8834C63.6117 26.9891 63.5353 27.609 62.9353 27.656C62.2294 27.7089 61.4 28.079 61.2206 28.8369C60.8971 28.2934 60.153 28.3375 59.6647 28.6136C58.8559 29.0749 58.2853 28.8457 57.4236 29.1043C55.9824 29.5361 55.7589 31.5543 54.3059 31.9244C54.3618 31.6747 56.3941 30.1207 54.7853 29.9062C55.3412 30.72 54.2618 30.8757 53.7736 31.2017C53.6 31.3192 54.0794 32.8263 54.0559 32.9731C53.9353 32.5589 53.2001 31.9773 53.153 32.1418C53.103 32.0125 53.7001 31.7011 52.9501 31.3956C52.3912 33.8251 51.5794 31.2693 52.4147 31.895C52.4971 31.425 52.4677 30.814 52.4647 31.4103C52.4941 31.4661 52.2353 31.5307 52.0618 31.5043C51.8324 31.472 51.6353 31.0901 51.5618 31.7658C51.6412 31.8128 50.8206 30.8228 50.8294 30.8962C50.8736 31.3045 51.2618 31.5954 48.9147 31.1841C49.053 31.422 49.5912 31.8598 50.1765 32.2211C50.2235 31.9597 50.5147 31.71 50.8794 32.5384C50.7353 31.1753 52.6147 33.3227 52.6559 32.5061C52.7059 32.5707 52.9706 32.9761 52.4118 33.4402L53.2118 32.9614C52.9471 33.3991 54.6794 34.1482 54.7441 34.2334C55.5265 35.2293 54.2089 35.4408 56.3059 36.0342C56.2265 35.6288 54.4 33.7957 54.7618 34.1335C55.05 34.4038 55.7588 35.0706 56.0647 35.2381C56.3706 35.4085 56.6617 35.5348 56.9206 35.5965C57.1823 35.6582 57.4148 35.6582 57.603 35.573C57.7824 35.4878 57.9206 35.3233 58 35.053C58.4618 35.5906 58.7559 35.4261 59.2883 35.1529C60 34.7827 60.8676 35.1353 61.4353 35.6112C60.7529 35.7022 60.7618 36.0312 60.7706 36.5982C60.7853 37.2915 60.15 37.2592 59.6177 37.3209C59.0412 37.3855 58.7206 37.3591 58.1941 37.0712C57.8794 36.8949 57.4353 36.6188 57.05 36.7715C56.6647 36.9214 56.8706 37.3238 56.6383 37.4149C56.0706 37.644 55.7353 38.211 55.1295 38.2991C54.303 38.4137 53.5794 38.3344 52.9353 38.9777C51.8383 40.0852 49.7882 41.416 48.5941 39.4272C49.4559 39.6211 49.6706 36.7245 48.3412 36.5248C47.6088 36.419 47.2235 36.1546 46.6029 35.7845C46.0235 35.4408 45.4853 35.6846 44.8736 35.6082C43.9471 35.4878 46.0177 34.11 46.3382 33.9808C46.9706 33.7311 49.1617 33.3785 49.3647 32.6089C48.8147 32.6236 48.7265 32.086 48.7148 31.6659C48.0853 32.0184 48.247 32.1065 47.4382 31.7099C46.7765 31.3868 45.8883 31.7334 45.1647 31.7481C44.3736 31.7599 43.8823 31.848 43.1529 31.4485C42.5382 31.1048 41.8383 30.5466 41.0794 30.767C43.3177 29.8827 40.5089 30.2206 39.9647 29.4362C41.3647 30.1236 43.2353 29.9297 44.4235 29.0514C43.6265 29.2776 42.5412 29.6712 41.8324 28.9662C41.2971 28.4374 41.7059 27.5385 41.1265 26.9921C41.5735 27.5884 41.4324 28.1554 41.4441 28.8163C41.4471 29.3216 40.2824 29.0014 40.0059 29.1777C39.8501 28.8839 39.8676 28.599 40.05 28.3199C39.7 28.3933 39.6382 28.8575 39.4647 29.1043C39.2265 29.448 38.5147 29.1219 38.153 29.1835C36.6 29.4538 36.8382 30.9285 35.9294 31.8774C35.85 31.4279 34.9882 30.0678 34.3911 30.5055C34.6088 31.1342 35.5912 31.187 35.7735 31.8216C35.9941 32.5707 33.8941 33.9484 33.3588 34.2363C33.8471 33.9132 34.453 33.5695 34.6059 32.9496C34.0383 32.9908 32.9941 34.8709 32.8823 33.5489C32.6147 33.8456 32.2324 34.7974 33.0942 34.4067C32.9912 34.5448 32.8911 34.6858 32.7941 34.8356C33.397 34.9238 33.7382 36.0783 33.053 36.2927C32.8588 34.4596 31.3353 35.3262 30.5029 35.5348C29.4235 35.7992 29.1794 36.5865 27.9647 35.7727C27.7764 35.6494 26.4235 34.9208 27.4353 34.7446C28.4882 34.5624 28.1618 33.9719 28.6647 33.3462C29.2206 32.6529 29.8588 32.1095 29.7176 31.0813C29.5882 30.1794 29.4501 29.965 30.5618 29.5596C30.6559 29.821 30.753 30.0766 30.8648 30.3322C31.5059 29.0132 33.2765 31.1959 34.2383 30.1824C33.8206 30.056 33.6559 29.68 33.2618 29.5155C34.3912 28.9544 32.4177 27.1301 31.4853 27.0038C31.7206 26.6219 31.7294 25.159 31.197 25.8581C31.0264 26.0696 30.4588 24.4216 30.347 24.2512C30.0588 23.8165 29.9706 23.3464 29.6589 22.8705C28.8706 21.6749 29.2236 23.1202 28.3677 22.1361C28.0059 21.7219 27.0589 21.0345 26.8706 21.8982C26.7324 21.1285 26.2235 22.095 26.0765 21.3518C25.2059 21.763 24.2265 20.0651 23.4647 19.8271C22.8617 19.6362 22.4059 20.679 20.6354 20.2883C20.2912 20.2119 19.8795 20.3001 20 20.7701C19.8059 21.0257 19.2118 20.9669 18.8971 21.0433C18.5853 21.1167 18.1794 21.2607 18.0589 21.5985C17.7824 22.3799 17.3736 22.3153 16.5648 22.3858C15.5706 22.4769 14.4911 22.2859 13.7647 23.1055C12.6853 24.3158 12.103 22.8353 11.0824 22.5033C10.5941 22.3447 10.0383 22.5151 9.55002 22.5738C8.9412 22.6443 8.62648 22.4446 8.05295 22.3447C7.47354 22.2448 6.89707 22.4416 6.37943 22.0803C5.51178 21.4722 5.3941 22.2389 4.59998 22.4387C4.57939 21.5192 3.69415 21.8835 3.23827 21.3753C2.91474 21.0169 2.72651 21.1755 2.41474 20.9405C2.05886 20.682 1.97355 20.2942 1.46179 20.1767Z" stroke="white"/>
</g>
<defs>
<filter id="filter0_d_4_9071" x="0.945435" y="0.0412598" width="72.4776" height="41.9098" filterUnits="userSpaceOnUse" color-interpolation-filters="sRGB">
<feFlood flood-opacity="0" result="BackgroundImageFix"/>
<feColorMatrix in="SourceAlpha" type="matrix" values="0 0 0 0 0 0 0 0 0 0 0 0 0 0 0 0 0 0 127 0" result="hardAlpha"/>
<feOffset dy="1"/>
<feComposite in2="hardAlpha" operator="out"/>
<feColorMatrix type="matrix" values="0 0 0 0 0 0 0 0 0 0 0 0 0 0 0 0 0 0 0.5 0"/>
<feBlend mode="normal" in2="BackgroundImageFix" result="effect1_dropShadow_4_9071"/>
<feBlend mode="normal" in="SourceGraphic" in2="effect1_dropShadow_4_9071" result="shape"/>
</filter>
<linearGradient id="paint0_linear_4_9071" x1="37.1843" y1="0.54126" x2="37.1843" y2="40.451" gradientUnits="userSpaceOnUse">
<stop offset="0.392336" stop-color="#005BBB"/>
<stop offset="0.408687" stop-color="#FFD500"/>
</linearGradient>
</defs>
</svg>
