<svg width="16" height="16" viewBox="0 0 16 16" fill="none" xmlns="http://www.w3.org/2000/svg">
<path d="M15.8482 15.1295L11.7172 11.0646C12.799 9.8893 13.4637 8.33495 13.4637 6.62454C13.4632 2.96568 10.4494 0 6.73158 0C3.0137 0 0 2.96568 0 6.62454C0 10.2834 3.0137 13.2491 6.73158 13.2491C8.33795 13.2491 9.81129 12.6935 10.9686 11.7697L15.1155 15.8507C15.3176 16.0497 15.6457 16.0497 15.8477 15.8507C16.0502 15.6517 16.0502 15.3286 15.8482 15.1295ZM6.73158 12.2299C3.58585 12.2299 1.03575 9.72028 1.03575 6.62454C1.03575 3.5288 3.58585 1.01923 6.73158 1.01923C9.87733 1.01923 12.4274 3.5288 12.4274 6.62454C12.4274 9.72028 9.87733 12.2299 6.73158 12.2299Z" fill="#2C2C2C"/>
<path d="M6.10975 6.97795V6.10975H6.97796V6.97795H6.10975ZM4.36365 6.97795V6.10974H8.72728V6.97795H4.36365Z" fill="#2C2C2C"/>
</svg>
